<svg width="22" height="22" viewBox="0 0 22 22" fill="none" xmlns="http://www.w3.org/2000/svg">
<g id="Frame" clip-path="url(#clip0_2068_274)">
<path id="Vector" d="M22 2.36425V19.6357C21.9875 19.6606 21.972 19.6855 21.9658 19.7135C21.6951 21.1321 20.653 21.9969 19.2033 22C17.6355 22 16.0676 22 14.4997 22C13.9429 22 13.7064 21.7605 13.7064 21.2005C13.7064 18.6745 13.7064 16.1454 13.7064 13.6193C13.7064 13.0625 13.9429 12.8261 14.5059 12.8261C15.1499 12.8261 15.7938 12.8261 16.4378 12.8261C16.5124 12.8261 16.5902 12.8199 16.6742 12.8167V10.9782C16.584 10.9782 16.5062 10.9782 16.4284 10.9782C15.7627 10.9782 15.097 10.9813 14.4313 10.9782C13.9553 10.9751 13.7033 10.72 13.7033 10.2441C13.7033 9.42902 13.7033 8.61086 13.7033 7.79581C13.7033 7.26697 13.9989 6.97144 14.5277 6.96833C15.1654 6.96833 15.8032 6.96833 16.4409 6.96833C16.5187 6.96833 16.5933 6.96833 16.668 6.96833V5.12047C15.94 5.12047 15.2339 5.12047 14.5246 5.12047C12.9754 5.1267 11.8586 6.24039 11.8555 7.78959C11.8555 8.59219 11.8555 9.3948 11.8555 10.1943C11.8555 10.7387 11.619 10.9751 11.0684 10.9751C10.4183 10.9751 9.76498 10.9751 9.11481 10.9751C9.04015 10.9751 8.96549 10.9844 8.89083 10.9876V12.8261C8.98415 12.8261 9.06192 12.8261 9.13969 12.8261C9.78986 12.8261 10.4431 12.8261 11.0933 12.8261C11.6128 12.8261 11.8555 13.0749 11.8555 13.5913C11.8555 16.1391 11.8555 18.69 11.8555 21.2378C11.8555 21.7542 11.6066 22 11.0902 22C8.31221 22 5.53421 22 2.75621 22C2.53534 22 2.31136 21.9813 2.09671 21.9316C0.824366 21.6329 0.00309897 20.5752 -1.18909e-05 19.2282C-1.18909e-05 14.366 -1.18909e-05 9.50368 -1.18909e-05 4.64451C-1.18909e-05 3.97879 -0.00623361 3.31307 -1.18909e-05 2.64734C0.0217641 1.49943 0.749705 0.50707 1.82917 0.1431C2.00649 0.0839932 2.18692 0.0466629 2.36424 0H19.6388C19.67 0.0124434 19.7042 0.0311086 19.7353 0.0373303C20.5814 0.177319 21.2316 0.619061 21.6453 1.36878C21.8133 1.67364 21.8849 2.03139 22.0031 2.36425H22ZM15.0161 20.7028C15.1063 20.7028 15.1717 20.7028 15.237 20.7028C16.556 20.7028 17.8719 20.7028 19.1909 20.7028C20.1272 20.7028 20.7059 20.1273 20.7059 19.1909C20.7059 13.7282 20.7059 8.26555 20.7059 2.79977C20.7059 1.87585 20.1241 1.29723 19.2002 1.29723C13.7375 1.29723 8.27487 1.29723 2.80909 1.29723C2.64733 1.29723 2.47623 1.31278 2.32069 1.35322C1.6643 1.53054 1.29722 2.06561 1.29722 2.83399C1.29722 8.27489 1.29722 13.7189 1.29722 19.1598C1.29722 20.1273 1.8665 20.6997 2.82776 20.6997C5.32578 20.6997 7.82691 20.6997 10.3249 20.6997C10.3996 20.6997 10.4743 20.6934 10.5489 20.6903V14.1233C10.4556 14.1233 10.3778 14.1233 10.3 14.1233C9.64054 14.1233 8.98104 14.1233 8.32465 14.1233C7.83624 14.1233 7.57493 13.8651 7.57182 13.386C7.56871 12.3906 7.56871 11.3951 7.57182 10.3996C7.57182 9.92986 7.83935 9.67477 8.3122 9.67166C8.97793 9.67166 9.64365 9.67166 10.3094 9.67166C10.3871 9.67166 10.4618 9.67166 10.5614 9.67166C10.5614 9.57211 10.5614 9.49434 10.5614 9.41657C10.5614 8.80062 10.552 8.18467 10.5676 7.56872C10.6236 5.51866 12.2786 3.86991 14.3317 3.82325C15.3054 3.80147 16.2791 3.81702 17.2528 3.81702C17.7381 3.81702 17.9901 4.07212 17.9932 4.56052C17.9932 5.54044 17.9932 6.52347 17.9932 7.50339C17.9932 8.00735 17.7443 8.25311 17.2373 8.25311C16.5715 8.25311 15.9058 8.25311 15.2401 8.25311C15.1654 8.25311 15.0877 8.25933 15.0192 8.26244V9.66544C15.7596 9.66544 16.4813 9.66544 17.203 9.66544C17.7443 9.66544 17.9932 9.9112 17.9932 10.4525C17.9932 11.4106 17.9932 12.3719 17.9932 13.33C17.9932 13.8713 17.7443 14.1171 17.203 14.1171C16.5529 14.1171 15.8996 14.1171 15.2494 14.1171C15.1748 14.1171 15.097 14.1233 15.013 14.1264V20.6934L15.0161 20.7028Z" fill="white"/>
</g>
<defs>
<clipPath id="clip0_2068_274">
<rect width="22" height="22" fill="white"/>
</clipPath>
</defs>
</svg>
