<svg width="23" height="22" viewBox="0 0 23 22" fill="none" xmlns="http://www.w3.org/2000/svg">
<g id="Frame" clip-path="url(#clip0_2068_279)">
<path id="Vector" d="M22.9936 1.18803C22.7566 0.388866 22.1706 0 21.197 0C19.0226 0.00612387 15.9866 0.0091858 11.6409 0.0091858H2.39223C2.36341 0.0091858 2.33459 0.0091858 2.31857 0.0091858C2.23531 0.0091858 2.14884 0.0091858 2.06558 0.0091858H1.66527C0.605263 0.0091858 0 0.590953 0 1.60752V20.4537C0 20.5027 0 20.5517 0 20.6007C0.0160123 21.0324 0.188945 21.3846 0.499582 21.6203C0.650097 21.7336 0.82303 21.8102 1.00877 21.8928C1.07282 21.9204 1.13687 21.951 1.20092 21.9816L1.23935 22H21.7318L21.7607 21.9939C22.4075 21.8316 22.8207 21.4335 23 20.7875V1.21865L22.9936 1.18803ZM21.3027 20.815H20.912C20.8448 20.815 20.7807 20.815 20.7167 20.815H1.70691C1.28418 20.815 1.23935 20.7752 1.23935 20.3802V3.61615C1.23935 2.91802 1.23935 2.21684 1.23935 1.51872C1.23935 1.28295 1.32902 1.19722 1.57881 1.19415H2.06238C2.14564 1.19415 2.23211 1.19415 2.30256 1.19415C2.33459 1.19415 2.36661 1.19415 2.39864 1.19415H21.3155C21.7158 1.19415 21.7639 1.23702 21.7639 1.62589V20.4017C21.7639 20.7691 21.7126 20.815 21.3059 20.815H21.3027Z" fill="white"/>
<path id="Vector_2" d="M19.8488 11.4608C19.5798 9.31434 17.6647 7.69458 15.3878 7.69458C14.4975 7.69458 13.6328 7.95178 12.8867 8.44169C12.8162 8.03445 12.6113 7.90892 12.0797 7.90892H9.33836C8.80035 7.90892 8.58258 8.12019 8.58258 8.63766V18.2583C8.58258 18.7788 8.80675 18.9931 9.36078 18.9931H12.2558C12.8579 18.9931 13.0724 18.788 13.0724 18.2093V12.8815C13.0724 12.7651 13.0724 12.6641 13.0852 12.5631C13.1301 12.1834 13.3286 11.8986 13.6777 11.7149C13.857 11.62 14.046 11.5741 14.2381 11.5741C14.8818 11.5741 15.3878 12.0701 15.391 12.7008C15.3942 13.9899 15.3942 15.2821 15.391 16.5711V18.2613C15.391 18.7727 15.6184 18.9931 16.15 18.9931H19.0674C19.6663 18.9931 19.8808 18.788 19.8808 18.2062V17.1376C19.8808 15.4719 19.8808 13.8062 19.8808 12.1374C19.8808 11.9323 19.8808 11.6935 19.8488 11.4638V11.4608ZM16.6303 12.6978C16.6271 11.5863 15.8585 10.68 14.7249 10.4381C14.5616 10.4044 14.395 10.386 14.2285 10.386C12.9988 10.386 11.9323 11.3291 11.8491 12.4926C11.8331 12.7376 11.8331 12.9917 11.8331 13.2122C11.8331 13.2122 11.8331 17.3274 11.8331 17.7928H9.83474V9.10307H11.6729C11.6729 9.24086 11.6729 9.57461 11.6729 9.70933C11.6729 9.93592 11.721 10.2513 12.1021 10.3707C12.1725 10.3921 12.2366 10.4013 12.2974 10.4013C12.544 10.4013 12.7169 10.239 12.8386 10.0982C13.5432 9.28679 14.379 8.87342 15.3237 8.87342C15.612 8.87342 15.9162 8.91323 16.2236 8.98978C17.5494 9.32047 18.3533 10.1778 18.6127 11.5373C18.6447 11.7027 18.6447 11.8802 18.6447 12.0762C18.6447 13.5612 18.6447 15.0493 18.6447 16.5344V17.7928H16.6335V16.1792C16.6335 15.0187 16.6335 13.8583 16.6335 12.6978H16.6303Z" fill="white"/>
<path id="Vector_3" d="M7.13825 7.90894H4.13115C3.60915 7.90894 3.38498 8.12327 3.38498 8.62543C3.38498 11.8405 3.38498 15.0524 3.38498 18.2675C3.38498 18.7666 3.61556 18.9901 4.13115 18.9901H7.11583C7.64744 18.9901 7.87161 18.7696 7.87481 18.2583V8.61318C7.87481 8.12021 7.65385 7.90894 7.13825 7.90894ZM6.62266 9.10309V17.7867H4.63714V9.10309H6.62266Z" fill="white"/>
<path id="Vector_4" d="M5.62669 3.01904C4.95738 3.01904 4.3265 3.27318 3.85253 3.72941C3.37857 4.1887 3.11917 4.7919 3.12237 5.42879C3.13198 6.74236 4.25284 7.81709 5.62349 7.82322H5.6331C7.01335 7.82322 8.13741 6.74542 8.14061 5.42266C8.14061 4.78272 7.87801 4.18258 7.40405 3.72635C6.92689 3.27012 6.296 3.01904 5.62989 3.01904H5.62669ZM4.7268 4.56838C4.96699 4.33568 5.28403 4.20707 5.62029 4.20401H5.6331C6.32803 4.20401 6.89806 4.74597 6.90126 5.41041C6.90447 6.08098 6.33443 6.62906 5.62669 6.63825C4.93496 6.63825 4.37133 6.09629 4.36492 5.42879C4.36172 5.10728 4.48982 4.80109 4.73 4.56838H4.7268Z" fill="white"/>
</g>
<defs>
<clipPath id="clip0_2068_279">
<rect width="23" height="22" fill="white"/>
</clipPath>
</defs>
</svg>
