<svg width="162" height="166" viewBox="0 0 162 166" fill="none" xmlns="http://www.w3.org/2000/svg">
<g clip-path="url(#clip0_2068_56)">
<path d="M81.001 152.205C122.887 152.205 156.842 118.133 156.842 76.1027C156.842 34.0724 122.887 0 81.001 0C39.115 0 5.15967 34.0724 5.15967 76.1027C5.15967 118.133 39.115 152.205 81.001 152.205Z" fill="white"/>
<path d="M9.02142 118.602L6.88971 114.742L5.31919 115.578L7.27325 119.127L5.99342 119.816L4.04743 116.271L2.14786 117.298L4.37647 121.337L3.04617 122.056L0 116.528L7.37217 112.538L10.3194 117.887L9.02142 118.602Z" fill="white"/>
<path d="M11.4357 119.698L12.4814 121.195L9.5644 127.201L14.3809 123.901L15.3075 125.238L8.40366 129.97L7.40644 128.54L10.3598 122.402L5.45843 125.759L4.53186 124.424L11.4357 119.698Z" fill="white"/>
<path d="M13.4282 131.113L13.2788 131.234C12.7923 131.655 12.4895 132.004 12.3604 132.257C12.2372 132.518 12.3018 132.792 12.5541 133.1C12.8065 133.387 13.083 133.491 13.3879 133.404C13.5675 133.347 13.8118 133.195 14.1146 132.934L18.598 129.168L19.7345 130.495L15.2773 134.234C14.7323 134.692 14.2256 134.967 13.7472 135.048C12.9417 135.19 12.1908 134.86 11.5024 134.052C10.8201 133.248 10.5718 132.527 10.7757 131.89C10.9715 131.242 11.452 130.606 12.2029 129.978L12.3503 129.859L13.4262 131.111L13.4282 131.113Z" fill="white"/>
<path d="M20.7216 142.223C19.8092 142.252 18.921 141.857 18.055 141.034C17.195 140.21 16.757 139.341 16.7549 138.437C16.6984 137.281 17.195 136.165 18.2387 135.101C19.3086 133.999 20.4128 133.469 21.5634 133.501C22.4738 133.471 23.36 133.864 24.222 134.694C25.092 135.52 25.522 136.379 25.5281 137.275C25.6007 138.417 25.1062 139.527 24.0343 140.625C22.9886 141.703 21.8824 142.241 20.7236 142.225L20.7216 142.223ZM20.8165 140.564C21.4645 140.477 22.1165 140.09 22.7726 139.422C23.4327 138.757 23.788 138.089 23.8506 137.445C23.9152 136.795 23.6931 136.233 23.1864 135.755C22.6878 135.277 22.1125 135.075 21.4645 135.164C20.8044 135.247 20.1544 135.616 19.4923 136.3C18.8342 136.971 18.4849 137.635 18.4304 138.283C18.3679 138.938 18.5879 139.497 19.0865 139.969C19.5892 140.453 20.1645 140.643 20.8165 140.564Z" fill="white"/>
<path d="M32.236 141.747L33.8106 142.952L28.3784 145.369L26.4526 147.832L25.0677 146.767L26.9895 144.304L27.908 138.427L29.5371 139.681L28.6832 143.607L32.236 141.747Z" fill="white"/>
<path d="M43.7162 148.843L42.9854 150.119L40.7972 148.9L37.3978 154.859L35.8656 154L39.2549 148.039L37.0627 146.809L37.7914 145.535L43.7162 148.843Z" fill="white"/>
<path d="M41.8207 157.178L45.1757 149.55L46.7725 150.243L45.4886 153.153L48.4843 154.438L49.7702 151.537L51.3629 152.232L48.0119 159.842L46.4071 159.153L47.913 155.754L44.9173 154.462L43.4174 157.873L41.8207 157.178Z" fill="white"/>
<path d="M58.9996 156.247L54.7563 154.93L54.2274 156.613L58.1174 157.825L57.6793 159.2L53.7874 157.987L53.1414 160.039L57.5764 161.412L57.1202 162.836L51.05 160.946L53.5673 153.018L59.4416 154.847L58.9996 156.247Z" fill="white"/>
<path d="M70.7906 157.235C71.0712 157.407 71.3033 157.638 71.4729 157.922C71.6223 158.151 71.7232 158.408 71.7878 158.671C71.8605 158.943 71.8605 159.238 71.8161 159.569C71.7515 159.945 71.594 160.314 71.3396 160.669C71.0772 161.019 70.7118 161.238 70.2314 161.327C70.5907 161.538 70.8309 161.793 70.95 162.091C71.0611 162.39 71.0752 162.842 70.9924 163.415L70.9077 163.966C70.8511 164.345 70.8309 164.6 70.837 164.734C70.8511 164.955 70.9339 165.135 71.0873 165.257L71.057 165.467L69.1393 165.178C69.1171 164.989 69.0969 164.835 69.0868 164.724C69.0808 164.485 69.0949 164.244 69.1272 163.995L69.2362 163.235C69.3008 162.71 69.2645 162.35 69.1191 162.145C68.9617 161.941 68.6488 161.811 68.1623 161.738L66.4666 161.483L65.9801 164.71L64.2885 164.458L65.536 156.232L69.5047 156.824C70.0719 156.919 70.4918 157.057 70.7865 157.237L70.7906 157.235ZM67.0096 157.916L66.6786 160.126L68.5418 160.411C68.9173 160.46 69.1999 160.45 69.3997 160.391C69.7489 160.29 69.9629 160.008 70.0336 159.54C70.1103 159.044 69.9993 158.687 69.7086 158.471C69.5471 158.337 69.2806 158.256 68.9334 158.203L67.0076 157.916H67.0096Z" fill="white"/>
<path d="M80.5791 159.164L76.1421 158.963L76.0694 160.723L80.1411 160.902L80.0765 162.346L75.9967 162.17L75.9039 164.303L80.5468 164.503L80.4802 166L74.1234 165.72L74.4928 157.424L80.6437 157.679L80.5791 159.164Z" fill="white"/>
<path d="M85.2018 157.533L87.1862 157.413L90.6502 165.538L88.7547 165.643L88.0966 163.98L85.008 164.163L84.5417 165.905L82.7189 165.998L85.2018 157.531V157.533ZM85.3936 162.698L87.5516 162.573L86.2919 159.368L85.3916 162.698H85.3936Z" fill="white"/>
<path d="M91.813 156.986L93.541 156.706L94.6533 163.438L98.7875 162.763L99.0358 164.246L93.1615 165.19L91.813 156.986Z" fill="white"/>
<path d="M109.325 155.489C109.024 154.989 108.59 154.711 108.031 154.657C107.722 154.622 107.395 154.673 107.054 154.776C106.416 154.979 105.964 155.39 105.705 156.006C105.451 156.613 105.485 157.407 105.794 158.369C106.117 159.34 106.563 159.956 107.147 160.213C107.726 160.47 108.299 160.517 108.877 160.324C109.43 160.148 109.842 159.838 110.09 159.405C110.344 158.967 110.427 158.489 110.344 157.942L108.491 158.536L108.061 157.219L111.388 156.145L112.789 160.383L111.677 160.737L111.184 159.81C110.986 160.286 110.782 160.648 110.574 160.883C110.227 161.29 109.733 161.596 109.085 161.801C108.031 162.143 107.038 162.066 106.131 161.55C105.187 161.053 104.514 160.166 104.088 158.902C103.667 157.624 103.691 156.482 104.145 155.479C104.601 154.484 105.415 153.798 106.584 153.417C107.595 153.089 108.491 153.081 109.28 153.393C110.068 153.702 110.629 154.227 110.962 154.954L109.327 155.487L109.325 155.489Z" fill="white"/>
<path d="M121.348 155.856C121.045 156.706 120.349 157.379 119.267 157.883C118.175 158.378 117.196 158.471 116.346 158.141C115.242 157.776 114.37 156.913 113.746 155.56C113.092 154.176 112.999 152.963 113.445 151.916C113.754 151.063 114.446 150.388 115.536 149.894C116.618 149.394 117.599 149.303 118.437 149.637C119.533 149.977 120.401 150.838 121.055 152.22C121.683 153.575 121.778 154.792 121.35 155.858L121.348 155.856ZM119.822 155.165C119.973 154.537 119.86 153.798 119.453 152.949C119.065 152.104 118.572 151.523 117.991 151.231C117.404 150.939 116.79 150.939 116.156 151.231C115.526 151.515 115.139 151.983 114.967 152.609C114.81 153.245 114.937 153.986 115.326 154.841C115.722 155.692 116.221 156.257 116.804 156.546C117.406 156.832 118.015 156.838 118.639 156.546C119.271 156.261 119.667 155.801 119.824 155.165" fill="white"/>
<path d="M130.481 150.636C130.289 151.517 129.671 152.268 128.65 152.888C127.626 153.51 126.671 153.713 125.787 153.488C124.645 153.251 123.676 152.495 122.888 151.227C122.095 149.931 121.845 148.728 122.18 147.642C122.374 146.765 122.977 146.013 124.009 145.387C125.026 144.771 125.979 144.571 126.865 144.794C127.981 145.004 128.954 145.76 129.756 147.056C130.537 148.33 130.787 149.528 130.485 150.634L130.481 150.636ZM128.876 150.127C128.96 149.483 128.755 148.762 128.26 147.966C127.774 147.168 127.212 146.657 126.601 146.439C125.977 146.214 125.381 146.276 124.78 146.633C124.192 147.004 123.849 147.506 123.77 148.158C123.68 148.8 123.88 149.528 124.378 150.318C124.875 151.118 125.43 151.634 126.052 151.853C126.673 152.07 127.287 151.993 127.872 151.634C128.468 151.27 128.799 150.779 128.874 150.127" fill="white"/>
<path d="M133.105 139.541C133.684 139.339 134.282 139.327 134.883 139.511C135.374 139.657 135.814 139.884 136.189 140.208C136.579 140.516 136.906 140.842 137.174 141.19C137.865 142.055 138.269 142.932 138.396 143.815C138.559 144.994 138.133 145.975 137.138 146.753L134.286 148.95L129.118 142.408L131.968 140.198C132.382 139.882 132.762 139.675 133.107 139.541H133.105ZM131.355 142.509L134.734 146.783L136.012 145.792C136.658 145.292 136.866 144.616 136.617 143.779C136.49 143.317 136.23 142.851 135.846 142.359C135.321 141.699 134.813 141.273 134.324 141.077C133.829 140.888 133.27 141.028 132.638 141.512L131.357 142.507L131.355 142.509Z" fill="white"/>
<path d="M136.103 136.843L137.417 135.575L143.885 137.418L139.803 133.276L140.978 132.14L146.838 138.103L145.584 139.318L138.971 137.443L143.128 141.67L141.955 142.803L136.103 136.843Z" fill="white"/>
<path d="M147.613 126.703L144.765 130.082L146.143 131.21L148.743 128.103L149.87 129.034L147.26 132.136L148.919 133.505L151.884 129.96L153.057 130.916L148.984 135.761L142.528 130.448L146.462 125.759L147.613 126.703Z" fill="white"/>
<path d="M153.283 126.196C153.629 126.365 153.935 126.444 154.174 126.407C154.626 126.363 155.05 126.051 155.445 125.467C155.673 125.121 155.833 124.815 155.906 124.548C156.039 124.035 155.906 123.654 155.522 123.393C155.286 123.239 155.038 123.211 154.773 123.334C154.521 123.456 154.188 123.703 153.796 124.074L153.122 124.708C152.464 125.338 151.941 125.718 151.565 125.872C150.932 126.122 150.263 126.018 149.587 125.56C148.965 125.147 148.6 124.576 148.493 123.847C148.386 123.111 148.638 122.311 149.234 121.422C149.739 120.691 150.358 120.188 151.099 119.933C151.848 119.672 152.593 119.775 153.342 120.237L152.409 121.625C151.975 121.375 151.549 121.363 151.14 121.584C150.863 121.744 150.613 121.993 150.374 122.338C150.122 122.714 149.989 123.067 149.989 123.393C149.983 123.727 150.114 123.974 150.387 124.159C150.635 124.323 150.897 124.335 151.182 124.189C151.356 124.106 151.662 123.867 152.082 123.474L153.201 122.447C153.679 122.001 154.121 121.72 154.513 121.596C155.116 121.404 155.73 121.507 156.358 121.922C156.992 122.35 157.351 122.945 157.442 123.717C157.535 124.479 157.276 125.315 156.661 126.198C156.055 127.108 155.357 127.685 154.589 127.934C153.822 128.173 153.075 128.05 152.359 127.568L153.285 126.194L153.283 126.196Z" fill="white"/>
<path d="M158.055 118.673C158.423 118.801 158.726 118.845 158.97 118.797C159.41 118.706 159.792 118.351 160.129 117.733C160.33 117.365 160.452 117.049 160.494 116.771C160.587 116.255 160.409 115.882 159.987 115.661C159.747 115.527 159.503 115.536 159.248 115.675C159.008 115.825 158.703 116.107 158.348 116.516L157.751 117.221C157.155 117.906 156.671 118.333 156.313 118.525C155.696 118.839 155.027 118.797 154.317 118.418C153.647 118.068 153.229 117.529 153.051 116.82C152.872 116.099 153.031 115.276 153.54 114.338C153.956 113.561 154.525 113.002 155.247 112.659C155.954 112.333 156.711 112.351 157.508 112.744L156.713 114.219C156.261 114.01 155.833 114.045 155.451 114.31C155.195 114.49 154.967 114.766 154.771 115.126C154.545 115.527 154.456 115.898 154.484 116.228C154.519 116.548 154.672 116.785 154.963 116.939C155.225 117.079 155.488 117.071 155.75 116.901C155.916 116.789 156.196 116.52 156.584 116.089L157.589 114.956C158.019 114.468 158.425 114.144 158.802 113.972C159.394 113.719 160.014 113.771 160.666 114.126C161.348 114.478 161.766 115.039 161.935 115.793C162.107 116.544 161.933 117.397 161.425 118.343C160.904 119.303 160.274 119.949 159.533 120.265C158.79 120.588 158.039 120.547 157.272 120.14L158.053 118.675L158.055 118.673Z" fill="white"/>
<path d="M8.8882 76.1392C8.90838 115.639 41.2555 147.634 81.1322 147.613C121.021 147.581 153.324 115.55 153.304 76.0582C153.283 36.5646 120.936 4.57186 81.0515 4.59211C41.1747 4.60832 8.86599 36.6476 8.8882 76.1413" fill="#2C65DA"/>
<path d="M10.5556 94.2888C8.77714 88.0195 7.81423 81.4119 7.81019 74.5734C7.78597 34.4964 40.5772 1.97905 81.0535 1.95879C121.534 1.93043 154.357 34.4053 154.384 74.4903C154.384 81.3248 153.431 87.9344 151.654 94.2078L10.5556 94.2888Z" fill="white"/>
<path d="M58.6564 84.8393C58.6564 85.2626 58.8683 85.6819 59.1873 85.9939C59.5103 86.4172 59.6233 86.7413 59.6233 86.95C59.6233 87.5799 59.3023 88.0114 58.6564 88.218C57.9094 88.534 56.8436 88.7447 55.3538 88.7447C53.973 88.7447 52.9032 88.5441 52.2693 88.3294C51.5143 88.0155 51.2034 87.586 51.2034 87.0553C51.2034 86.7434 51.3064 86.4274 51.5143 86.004C51.6173 85.9027 51.7323 85.7933 51.7323 85.69C51.8333 85.4733 51.9362 85.1613 51.9362 84.6306C52.0432 83.9986 52.0432 83.2633 52.0371 82.0905C52.0412 81.0433 51.9362 80.4153 51.7263 79.9899C51.5103 79.5605 51.1933 79.3518 50.7634 79.3518C50.3334 79.3518 50.0185 79.5585 49.8045 79.8826C49.5946 80.2026 49.4835 80.8285 49.4876 81.5638C49.4835 82.6212 49.5946 83.4679 49.5946 84.2053C49.6975 84.9487 49.7036 85.3619 49.8045 85.4692C49.8045 85.5408 49.8415 85.6131 49.9155 85.686C50.2304 86.1174 50.3415 86.5286 50.3415 86.954C50.3455 87.5921 50.0205 88.0134 49.3826 88.3315C48.7427 88.5401 47.6728 88.6475 46.179 88.6475C44.6852 88.6475 43.6274 88.5421 42.9875 88.3355C42.3455 88.1188 42.0246 87.6954 42.0246 87.0654C42.0246 86.7494 42.1315 86.3261 42.5555 85.9027C42.6564 85.7994 42.7674 85.6921 42.7674 85.6921C42.8764 85.4794 42.9854 85.2687 42.9854 84.9487C43.0884 84.5253 43.0884 83.8913 43.0884 82.7245C43.0884 81.4666 42.9854 80.6239 42.7654 80.0953C42.5514 79.6739 42.2284 79.4531 41.7036 79.4531C41.3745 79.4531 41.0637 79.676 40.9486 79.994C40.7367 80.4173 40.6377 81.2661 40.6377 82.6273V84.5334C40.6377 84.9527 40.7367 85.4794 40.9486 86.004C41.1686 86.4253 41.2756 86.7474 41.2756 86.8507C41.2756 87.4868 40.9506 87.9162 40.2057 88.2221C39.5678 88.5401 38.611 88.6495 37.1212 88.6495C35.6213 88.6535 34.4546 88.5421 33.8146 88.2302C33.0657 88.0215 32.7448 87.5982 32.7448 86.9642C32.7448 86.6441 32.9587 86.3322 33.3826 86.002C33.5946 85.9088 33.6996 85.8014 33.8146 85.6941C33.9196 85.5867 34.1275 85.2707 34.1275 84.8555C34.2345 84.424 34.2305 83.4781 34.2345 81.9993C34.2305 80.9359 34.2305 80.1986 34.1275 79.8866C34.1275 79.4612 33.9216 79.2526 33.8106 79.0399C33.6955 79.0399 33.5906 78.9366 33.4836 78.8313C33.0637 78.5153 32.8517 78.1831 32.8538 77.8691C32.8538 77.4559 32.9527 77.1378 33.3766 76.9231C33.6996 76.6112 34.3355 76.3965 35.2984 76.0845C36.0372 75.8718 36.8992 75.6612 37.6481 75.4424C38.3889 75.3452 39.0289 75.2337 39.5598 75.2337C39.8828 75.2378 40.0927 75.3391 40.1977 75.3472C40.3047 75.4444 40.4197 75.5538 40.5207 75.7624C40.6337 75.9751 40.6337 76.2911 40.6377 76.8137C40.7366 77.3505 40.8396 77.5592 41.0556 77.5551C41.1626 77.5551 41.3766 77.3505 41.5865 77.1358C41.7985 76.8137 42.1255 76.6051 42.2284 76.3904C42.7614 76.0805 43.2943 75.7624 43.8313 75.6531C44.4671 75.4383 45.1091 75.3391 45.856 75.3391C46.6029 75.3391 47.2448 75.4383 47.6688 75.649C48.1997 75.8678 48.6337 76.1777 48.9486 76.601C49.0556 76.7003 49.1626 76.8117 49.1626 76.913C49.4855 77.233 49.5905 77.4437 49.6935 77.4437C49.7964 77.4437 50.0124 77.3465 50.2284 77.0204C50.5474 76.8097 50.6544 76.6051 50.8704 76.4896C51.4114 76.0784 51.9362 75.7584 52.4651 75.5457C53.0021 75.3371 53.6359 75.2297 54.2758 75.2256C55.7737 75.2216 56.8315 75.647 57.5844 76.2769C58.3334 77.0163 58.6584 78.0798 58.6584 79.439V84.8332L58.6564 84.8393Z" fill="#2C65DA"/>
<path d="M128.92 85.4287C128.817 85.2201 128.496 85.1208 128.064 85.1208C127.86 85.0135 127.648 84.9021 127.537 84.584C127.537 84.3714 127.432 83.6381 127.432 82.4794L127.426 81.0979C127.537 80.474 127.537 79.9393 127.533 79.6273C127.533 78.1365 126.893 77.0872 125.721 76.3478C124.548 75.6125 122.84 75.1932 120.603 75.1932L119.751 75.1993C118.044 75.3046 116.657 75.6166 115.484 76.1412C114.099 76.7773 113.457 77.5227 113.457 78.3613C113.461 78.9001 113.564 79.2121 113.883 79.52C114.311 79.8461 114.739 79.9494 115.167 79.9494C115.7 79.9494 116.128 79.84 116.447 79.6334C116.867 79.5159 117.291 79.2121 117.723 78.6773C117.834 78.6773 117.834 78.574 117.931 78.4707C118.572 77.7273 119.21 77.4113 119.642 77.4113H119.749C120.181 77.4113 120.383 77.626 120.601 77.9319C120.813 78.2519 120.924 78.892 120.922 79.84V80.472C120.922 80.6847 120.813 80.784 120.813 80.8913C120.383 80.8913 120.066 80.784 119.747 80.784H119.428C119.115 80.6847 118.788 80.6847 118.57 80.6847C116.76 80.6847 115.373 81.106 114.099 81.8434C112.926 82.6921 112.284 83.6442 112.288 84.8109C112.288 85.9615 112.71 86.9155 113.673 87.6589C114.628 88.2909 115.803 88.7021 117.301 88.7021C118.254 88.7001 119.006 88.4915 119.749 88.1755C119.856 88.1714 119.967 88.0701 120.185 88.0701C120.932 87.6529 121.356 87.4361 121.356 87.4361C121.455 87.4361 121.78 87.6549 122.319 88.0641C122.85 88.4915 123.488 88.8115 124.34 88.8115C125.618 88.8115 126.799 88.4915 127.753 87.8575C128.708 87.2255 129.144 86.5914 129.14 85.9493C129.14 85.7447 129.033 85.526 128.92 85.4226V85.4287ZM120.613 85.3193C120.498 85.6353 120.181 85.7488 119.753 85.7488C119.43 85.7488 119.124 85.6353 118.901 85.4308C118.681 85.1188 118.681 84.7988 118.681 84.2721C118.681 83.8447 118.79 83.4254 119.004 83.1053C119.212 82.998 119.428 82.7934 119.749 82.7934L120.066 82.7893C120.387 82.7893 120.605 82.7893 120.718 82.8967C120.815 82.8967 120.815 83.1013 120.815 83.4274C120.815 84.3713 120.71 85.1208 120.611 85.3214" fill="#2C65DA"/>
<path d="M69.9569 76.8036L69.9609 84.4078C69.9609 84.9345 70.1729 85.4632 70.7119 85.7832C71.2367 86.1964 71.5637 86.5185 71.5637 86.9459C71.5637 87.4766 71.1317 88.0094 70.2738 88.2079C69.43 88.5259 68.1502 88.7366 66.5514 88.7366C64.8517 88.7406 63.5638 88.53 62.611 88.2119C61.751 87.9 61.2201 87.4766 61.2201 86.8345C61.2201 86.4172 61.537 86.1073 62.07 85.7893C62.181 85.6819 62.2779 85.5766 62.2779 85.5766C62.6049 85.3659 62.7139 85.1553 62.8148 84.8393C62.9178 84.5273 62.9178 83.8852 62.9178 83.0385V81.5537C62.9178 80.6037 62.9178 79.9757 62.8148 79.6557C62.7058 79.445 62.4939 79.2425 62.1749 79.0278H62.0639C61.424 78.7118 61.1111 78.2884 61.1111 77.865C61.1111 77.5531 61.319 77.2371 61.638 77.0183C61.963 76.8158 62.6009 76.4876 63.5597 76.283C64.6175 75.9711 65.5845 75.649 66.6443 75.5437C67.7101 75.335 68.451 75.2236 68.992 75.2236C69.4159 75.2236 69.6299 75.335 69.7368 75.4343C69.8479 75.5457 69.9569 75.7544 69.9569 76.0764V76.8057V76.8036Z" fill="#2C65DA"/>
<path d="M64.5145 74.697C63.4446 74.697 62.7058 74.4883 62.1749 74.1784C61.6339 73.8584 61.4158 73.437 61.4098 72.799C61.4138 72.167 61.8458 71.6362 62.8007 71.2129C63.7575 70.6781 65.0414 70.4816 66.4343 70.4816C67.4961 70.4735 68.241 70.5768 68.8829 70.903C69.4138 71.2088 69.7348 71.6322 69.7348 72.1649C69.7408 72.8982 69.2079 73.433 68.245 73.9556C67.1792 74.383 66.0083 74.697 64.5125 74.697" fill="#2C65DA"/>
<path d="M72.5146 86.9459C72.5146 86.5185 72.8355 86.0992 73.4775 85.8886C73.6894 85.7832 73.9014 85.6738 74.0124 85.5685C74.2224 85.3599 74.3273 84.8373 74.4363 83.8791C74.5474 82.9311 74.5474 81.1364 74.5474 78.3877V77.9684C74.5474 76.909 74.5474 76.2749 74.4303 75.963C74.3294 75.5356 74.1134 75.329 73.7984 75.1122C73.6915 75.0109 73.4815 74.9016 73.1585 74.8003C72.3975 74.4823 72.0846 74.1622 72.0846 73.6315C72.0846 73.3175 72.1916 72.9995 72.5146 72.6957C72.8335 72.4809 73.3665 72.1629 74.0043 71.8489C74.8603 71.5208 75.8151 71.2028 76.994 71.0022C78.0518 70.7794 79.1217 70.666 80.0785 70.668C80.6195 70.668 81.0414 70.7794 81.2534 70.8928C81.4694 70.9901 81.5744 71.3081 81.5744 71.7335C81.5744 71.8449 81.5663 71.9381 81.4694 72.2601L81.4734 80.393C81.4734 81.8636 81.4734 83.0263 81.5804 83.8791C81.6834 84.7218 81.7944 85.2485 82.0023 85.4571C82.0023 85.4571 82.3314 85.6759 82.7472 85.8886C83.1752 86.1965 83.3972 86.5145 83.4012 86.9358C83.3972 87.4665 82.8623 87.9972 81.9034 88.3092C81.0535 88.6272 79.6687 88.7325 77.751 88.7366C76.0371 88.7325 74.6483 88.6292 73.8005 88.3132C72.9466 88.0094 72.5226 87.582 72.5166 86.948" fill="#2C65DA"/>
<path d="M110.153 84.8069C110.153 85.2282 110.375 85.6434 110.696 85.9675C111.01 86.3848 111.119 86.7069 111.119 86.9176C111.119 87.5556 110.798 87.9729 110.048 88.1836C109.406 88.5036 108.342 88.7102 106.842 88.7163C105.455 88.7163 104.399 88.5036 103.654 88.297C103.008 87.9851 102.58 87.5597 102.58 87.029C102.574 86.717 102.792 86.395 103.006 85.9716C103.113 85.8602 103.224 85.763 103.224 85.6495C103.331 85.4389 103.434 85.1229 103.438 84.5942C103.436 83.9703 103.541 83.2249 103.545 82.0642C103.541 81.0108 103.436 80.3829 103.218 79.9535C103.008 79.5261 102.692 79.3255 102.258 79.3255C101.823 79.3255 101.517 79.5301 101.299 79.8623C101.093 80.1743 100.98 80.7941 100.98 81.5335C100.98 82.5949 100.98 83.4436 101.095 84.1809C101.095 84.9183 101.198 85.3356 101.307 85.4429C101.307 85.5172 101.34 85.5888 101.406 85.6576C101.737 86.083 101.844 86.5043 101.844 86.9277C101.848 87.5597 101.517 87.9871 100.885 88.297C100.237 88.5077 99.175 88.6191 97.6893 88.615C96.0824 88.6191 95.0165 88.5077 94.3786 88.299C93.8356 88.0843 93.5207 87.6711 93.5207 87.029C93.5207 86.7251 93.6317 86.2957 94.0516 85.8784C94.1626 85.767 94.1626 85.6556 94.2656 85.6556C94.3766 85.4409 94.4876 85.2363 94.4897 84.9183C94.5926 84.501 94.5967 83.8629 94.5926 82.7002C94.5926 81.4342 94.4877 80.5895 94.2656 80.0588C94.0516 79.6395 93.7347 79.4349 93.2038 79.4268C92.7778 79.4349 92.5598 79.6456 92.3479 79.9616C92.2368 80.3849 92.1399 81.2397 92.1399 82.5949V84.5071C92.1399 84.9223 92.2469 85.453 92.4609 85.9797C92.5618 86.401 92.6709 86.7272 92.6709 86.8203C92.6709 87.4625 92.3559 87.8919 91.7201 88.1998C91.07 88.5178 90.1112 88.6211 88.6214 88.6252C87.1296 88.6252 85.9608 88.5178 85.3148 88.1998C84.5699 87.9972 84.2469 87.5698 84.2469 86.9358C84.2469 86.6218 84.467 86.2998 84.8929 85.9858C85.1089 85.8825 85.2058 85.7771 85.3128 85.6698C85.4218 85.5584 85.5308 85.2485 85.6398 84.8251C85.7408 84.4038 85.7408 83.4558 85.7408 81.9669C85.7408 80.9156 85.7408 80.1844 85.6358 79.8684C85.5207 79.4369 85.4178 79.2263 85.3108 79.0115C85.2018 79.0115 85.1069 78.9143 84.9939 78.8029C84.5639 78.491 84.3519 78.1689 84.3519 77.8488C84.3479 77.4275 84.4569 77.1115 84.7758 76.9049C85.2038 76.5889 85.8437 76.3701 86.8026 76.0622C87.5455 75.8495 88.2903 75.6389 89.1483 75.4221C89.8932 75.3229 90.5412 75.2175 90.957 75.2175C91.282 75.2175 91.4899 75.3209 91.714 75.3209C91.8129 75.4161 91.926 75.5315 92.0269 75.7422C92.0269 75.9549 92.1379 76.2749 92.1339 76.7915C92.1399 77.3262 92.3458 77.5349 92.5618 77.5349C92.6628 77.5349 92.8808 77.3303 93.0968 77.1115C93.3087 76.7915 93.5247 76.5848 93.7327 76.3722C94.2676 76.0602 94.8005 75.7402 95.3335 75.6348C95.9613 75.414 96.6073 75.3209 97.3542 75.3168C98.1091 75.3209 98.747 75.4161 99.175 75.6308C99.7079 75.8435 100.132 76.1595 100.453 76.5828C100.564 76.6801 100.564 76.7915 100.665 76.8988C100.887 77.2128 101.101 77.4295 101.2 77.4295C101.307 77.4295 101.515 77.3222 101.741 76.994C101.943 76.7935 102.159 76.5849 102.373 76.4694C102.91 76.0582 103.444 75.7422 103.967 75.5275C104.508 75.3188 105.037 75.2054 105.782 75.2074C107.282 75.2074 108.342 75.6328 109.091 76.2648C109.842 76.9961 110.155 78.0595 110.155 79.4248L110.159 84.815L110.153 84.8069Z" fill="#2C65DA"/>
<path d="M80.8133 31.7902C70.9783 31.7983 63.045 39.684 63.051 49.5934C63.0571 59.3407 71.0005 67.1981 80.8314 67.1981C90.8602 67.192 98.7976 59.3225 98.7935 49.5792C98.7875 39.6638 90.836 31.7881 80.8133 31.7922V31.7902ZM84.4186 51.4509C82.9147 56.1483 84.4287 60.2664 84.243 60.8275C83.8554 61.3906 82.3354 63.076 80.6457 62.5047C78.7522 62.132 78.3747 60.2644 78.3747 60.2644C78.3747 60.2644 79.5052 54.0781 77.2301 49.9661C74.9672 45.6576 72.6922 44.345 72.6922 44.345C72.6922 44.345 79.8847 47.902 80.4519 52.5832C81.0313 57.0781 78.7502 59.8856 79.1277 60.2644C79.3154 60.6493 80.8274 61.7573 82.3374 61.0037C83.6717 60.2644 83.4799 60.074 82.9147 59.1483C82.3374 58.0139 80.8274 53.5211 82.3354 50.5231C83.8433 47.3328 86.4938 45.6475 87.2528 45.2727C88.1996 44.7116 89.1463 44.1566 89.1463 44.1566C89.1463 44.1566 85.7469 46.958 84.4186 51.4489V51.4509ZM88.3913 43.5915C86.3121 45.2727 83.6616 47.902 79.5072 47.3409C75.3407 46.7717 69.4764 39.8623 69.4764 39.8623C69.4764 39.8623 72.1229 42.0945 74.0144 43.0324C75.914 43.9743 79.3114 45.4611 83.2882 44.5232C87.2548 43.7738 92.1703 39.4734 92.1703 39.4734C92.3661 39.2809 90.6179 41.894 88.3934 43.5915" fill="#2C65DA"/>
<path d="M53.4826 104.389C50.0569 104.389 47.2711 107.186 47.2711 110.621C47.2711 113.164 48.8073 115.357 50.9834 116.324C51.7505 116.668 52.5923 116.85 53.4826 116.85H53.7854C54.6514 116.812 55.5113 116.585 56.3127 116.176C56.7346 115.957 57.1424 115.694 57.5159 115.368C57.8348 115.098 58.0306 114.721 58.0609 114.312C58.1235 113.488 57.4573 112.7 56.6337 112.635C56.2199 112.605 55.8262 112.744 55.5133 113.016C54.9723 113.455 54.3607 113.69 53.7349 113.735H53.4846C52.3178 113.735 51.3286 113.129 50.7917 112.183H58.1457C58.9915 112.183 59.694 111.478 59.694 110.623C59.694 107.19 56.9022 104.391 53.4846 104.391L53.4826 104.389ZM50.7917 109.066C51.3286 108.138 52.3178 107.502 53.4846 107.502C54.6514 107.502 55.6445 108.136 56.1775 109.066H50.7917Z" fill="white"/>
<path d="M34.4546 115.293C34.4546 116.145 33.75 116.848 32.9002 116.848C32.0503 116.848 31.3499 116.145 31.3499 115.293V105.948C31.3499 105.093 32.0503 104.389 32.9002 104.389C33.75 104.389 34.4546 105.093 34.4546 105.948V115.293Z" fill="white"/>
<path d="M42.0266 116.848C38.603 116.848 35.8112 114.061 35.8112 110.621C35.8112 107.182 38.603 104.389 42.0266 104.389C43.6093 104.389 45.208 104.996 46.4172 106.212C46.7079 106.505 46.8755 106.919 46.8755 107.308C46.8755 108.164 46.1528 108.867 45.3231 108.867C44.9153 108.867 44.5257 108.717 44.233 108.409C43.6274 107.767 42.8321 107.498 42.0286 107.498C40.3047 107.498 38.9219 108.885 38.9219 110.617C38.9219 112.349 40.3047 113.731 42.0286 113.731C42.8321 113.731 43.6113 113.447 44.233 112.837C44.5278 112.538 44.9174 112.374 45.3231 112.374C46.1548 112.374 46.8755 113.105 46.8755 113.927C46.8755 114.345 46.7079 114.738 46.4172 115.029C45.208 116.243 43.6093 116.846 42.0266 116.846" fill="white"/>
<path d="M71.0389 116.848C67.6253 116.848 64.8335 114.061 64.8335 110.621C64.8335 107.182 67.6233 104.389 71.0389 104.389C72.6235 104.389 74.2203 104.996 75.4315 106.212C75.7262 106.505 75.8958 106.919 75.8958 107.308C75.8958 108.164 75.163 108.867 74.3434 108.867C73.9276 108.867 73.542 108.717 73.2554 108.409C72.6457 107.767 71.8463 107.498 71.0409 107.498C69.323 107.498 67.9402 108.885 67.9402 110.617C67.9402 112.349 69.323 113.731 71.0409 113.731C71.8484 113.731 72.6255 113.447 73.2554 112.837C73.542 112.538 73.9276 112.374 74.3434 112.374C75.163 112.374 75.8958 113.105 75.8958 113.927C75.8958 114.345 75.7262 114.738 75.4315 115.029C74.2203 116.243 72.6235 116.846 71.0389 116.846" fill="white"/>
<path d="M78.8108 104.192C79.5173 104.192 80.127 104.607 80.3894 105.219C81.3079 104.709 82.3515 104.391 83.4699 104.391C84.3197 104.391 85.0222 105.096 85.0222 105.95C85.0222 106.805 84.3177 107.502 83.4699 107.502C81.7439 107.502 80.3632 108.89 80.3632 110.621V115.295C80.3632 116.145 79.6607 116.85 78.8108 116.85C77.9609 116.85 77.2544 116.147 77.2544 115.295V110.621C77.2544 109.503 77.0626 106.594 77.0626 105.95C77.0626 104.976 77.8418 104.194 78.8108 104.194" fill="white"/>
<path d="M119.982 109.84C119.982 108.551 118.934 107.502 117.65 107.502C116.366 107.502 115.316 108.551 115.316 109.84V115.293C115.316 116.145 114.614 116.848 113.764 116.848C112.914 116.848 112.214 116.145 112.214 115.293V109.84C112.214 108.964 112.016 106.556 112.016 105.948C112.016 104.974 112.795 104.192 113.764 104.192C114.372 104.192 114.909 104.514 115.215 104.974C115.946 104.605 116.776 104.389 117.648 104.389C119.174 104.389 120.535 105.017 121.526 106.017C122.497 105.017 123.874 104.389 125.41 104.389C128.416 104.389 130.842 106.825 130.842 109.84V115.293C130.842 116.145 130.137 116.848 129.29 116.848C128.442 116.848 127.735 116.145 127.735 115.293V109.84C127.735 108.551 126.692 107.502 125.41 107.502C124.128 107.502 123.076 108.551 123.076 109.84V115.293C123.076 116.145 122.376 116.848 121.526 116.848C120.676 116.848 119.979 116.145 119.979 115.293V109.84H119.982Z" fill="white"/>
<path d="M91.0883 104.389C87.6666 104.389 84.8728 107.186 84.8728 110.621C84.8728 113.164 86.409 115.357 88.5912 116.324C89.3522 116.668 90.196 116.85 91.0883 116.85H91.389C92.253 116.812 93.119 116.585 93.9184 116.176C94.3383 115.957 94.7481 115.694 95.1155 115.368C95.4344 115.098 95.6282 114.721 95.6605 114.312C95.7271 113.488 95.059 112.7 94.2354 112.635C93.8215 112.605 93.4218 112.744 93.111 113.016C92.572 113.455 91.9603 113.69 91.3305 113.735H91.0862C89.9195 113.735 88.9222 113.129 88.3913 112.183H95.7393C96.5831 112.183 97.2916 111.478 97.2916 110.623C97.2916 107.19 94.5059 104.391 91.0862 104.391L91.0883 104.389ZM88.3913 109.066C88.9222 108.138 89.9195 107.502 91.0862 107.502C92.253 107.502 93.2402 108.136 93.7731 109.066H88.3913Z" fill="white"/>
<path d="M109.046 104.666C108.475 104.666 107.972 104.98 107.704 105.446C106.709 104.788 105.522 104.391 104.246 104.391C100.826 104.391 98.0405 107.188 98.0405 110.623C98.0405 114.059 100.828 116.85 104.246 116.85C105.34 116.85 106.351 116.575 107.238 116.062C107.25 116.052 107.268 116.044 107.29 116.036C107.369 115.987 107.45 115.945 107.526 115.898C107.676 116.601 108.307 117.134 109.046 117.134C109.892 117.134 110.597 116.429 110.597 115.574V106.228C110.597 105.371 109.892 104.67 109.046 104.67V104.666ZM104.246 113.739C102.524 113.739 101.139 112.351 101.139 110.625C101.139 108.9 102.524 107.506 104.246 107.506C105.968 107.506 107.355 108.894 107.355 110.625C107.355 112.357 105.972 113.739 104.246 113.739Z" fill="white"/>
</g>
<defs>
<clipPath id="clip0_2068_56">
<rect width="162" height="166" fill="white"/>
</clipPath>
</defs>
</svg>
