<svg width="441" height="212" viewBox="0 0 441 212" fill="none" xmlns="http://www.w3.org/2000/svg">
<g clip-path="url(#clip0_2068_99)">
<path d="M68.5366 41.7733C68.985 41.9425 69.2644 42.2367 69.3747 42.6486C69.4849 43.0679 69.4041 43.5019 69.1247 43.9432C68.1176 45.9514 67.0369 47.9889 65.8607 50.0559C64.6918 52.1228 63.4862 54.1457 62.2659 56.1244C61.0382 58.1031 59.8106 60.0008 58.5829 61.8177C57.3552 63.6346 56.1569 65.2896 54.9881 66.7976C50.6949 72.4321 46.2914 77.0956 41.7703 80.7735C37.5286 84.1792 33.3457 86.6286 29.2216 88.1366C27.7734 88.7471 26.2517 89.1958 24.6638 89.4753C23.0759 89.7548 21.5247 89.8946 20.0251 89.8946C18.2387 89.8946 16.4817 89.6739 14.7541 89.2252C13.0266 88.7765 11.4387 88.0777 9.98312 87.1362C7.4175 85.6283 5.38118 83.679 3.87415 81.281C2.36713 78.883 1.30853 76.2718 0.698372 73.4545C0.08821 70.6373 -0.124979 67.695 0.0735073 64.6276C0.271994 61.5603 0.757183 58.6033 1.53643 55.7566C2.93318 50.8503 4.46226 46.2824 6.13837 42.0749C7.81448 37.86 9.74788 33.9321 11.9533 30.2763C14.1587 26.6205 16.6508 23.1633 19.437 19.8973C22.2231 16.6314 25.4062 13.4978 28.9717 10.4819C30.1405 9.47421 31.6917 8.47383 33.6104 7.46609C35.5364 6.45835 37.6242 5.70807 39.8811 5.20788C42.1379 4.70768 44.4389 4.61942 46.784 4.95778C49.129 5.29614 51.2977 6.32595 53.312 8.05455C54.8704 9.3933 56.1275 11.3352 57.0758 13.8729C58.0242 16.4107 58.4947 19.147 58.4947 22.0746C58.4947 25.0022 57.9507 27.9592 56.8627 30.9456C55.7747 33.9321 54.003 36.5139 51.5476 38.6839C50.7684 39.3533 49.7319 39.5886 48.4527 39.3974C47.1662 39.2061 45.9827 38.7869 44.8947 38.1396C43.8067 37.4996 43.0127 36.742 42.5128 35.8813C42.0129 35.0134 42.1747 34.2484 43.0127 33.579C44.5712 32.3506 45.9533 30.7617 47.1515 28.8051C48.3498 26.8558 49.2834 24.8183 49.9524 22.6925C50.6214 20.574 50.9816 18.5218 51.0404 16.5431C51.0919 14.5644 50.7904 12.9314 50.1215 11.6442C49.504 10.5849 48.5042 10.1804 47.1074 10.4305C45.7107 10.6806 44.0566 11.4897 42.1306 12.8579C40.2045 14.226 38.1314 16.0797 35.8966 18.4262C33.6692 20.7726 31.4344 23.5016 29.2069 26.6278C27.5308 28.9743 25.9723 31.4973 24.5241 34.2042C23.0759 36.9111 21.7747 39.5886 20.6352 42.2367C19.4884 44.8848 18.4886 47.4372 17.6212 49.894C16.7537 52.3509 16.0774 54.5282 15.5701 56.4259C14.563 60.1112 14.0631 63.539 14.0631 66.724C14.0631 69.909 14.4674 72.7116 15.2761 75.139C16.0847 77.5664 17.2683 79.5451 18.8341 81.0824C20.3926 82.6198 22.2378 83.5613 24.355 83.9291C26.4722 84.2895 28.832 84.0247 31.4197 83.1347C34.0147 82.2446 36.7861 80.5969 39.7414 78.199C41.9688 76.36 44.2404 74.1827 46.5561 71.6671C48.8717 69.1587 51.158 66.3783 53.4149 63.3404C55.6717 60.3024 57.8771 57.0365 60.0237 53.5499C62.1703 50.0632 64.2214 46.4221 66.1695 42.6266C66.7282 41.6188 67.5074 41.3467 68.5145 41.788L68.5366 41.7733Z" fill="white"/>
<path d="M102.764 40.5964C103.433 41.0451 103.603 41.6556 103.264 42.4353C102.316 44.4434 101.184 46.5472 99.8754 48.7539C98.5668 50.9606 97.0892 53.1085 95.4425 55.1975C93.7958 57.2866 92.0536 59.2138 90.2157 60.9718C88.3779 62.7298 86.4665 64.1642 84.489 65.2823C82.5115 66.4003 80.4899 67.1212 78.4242 67.4596C76.3584 67.7979 74.3221 67.5405 72.3152 66.7093C70.0877 65.8192 68.4851 64.5173 67.5074 62.8181C66.5297 61.1189 65.9636 59.2358 65.7945 57.1689C65.6255 55.1019 65.7945 52.9687 66.2944 50.7694C66.7943 48.5626 67.4118 46.5398 68.1323 44.7009C69.4702 41.2952 70.9625 38.4117 72.6092 36.0358C74.2559 33.6673 75.9982 31.7253 77.836 30.2174C79.6739 28.7095 81.5705 27.5988 83.526 26.8705C85.4741 26.1497 87.459 25.7819 89.4659 25.7819C91.4728 25.7819 93.046 26.2821 94.0237 27.2898C95.0014 28.2976 95.4866 29.6069 95.4866 31.2251C95.4866 32.8434 95.0382 34.6309 94.1487 36.5801C93.2592 38.5368 91.9874 40.4419 90.3407 42.3103C88.694 44.1786 86.7018 45.8851 84.3567 47.4151C82.0116 48.9525 79.3945 50.1073 76.4908 50.8871C76.1011 52.3361 75.8218 53.7779 75.6527 55.1975C75.4836 56.6172 75.4542 57.9192 75.5718 59.0887C75.6821 60.2583 75.9467 61.2366 76.3658 62.0163C76.7848 62.796 77.4097 63.2741 78.2477 63.436C79.4754 63.6566 80.7986 63.4801 82.2174 62.8916C83.6363 62.3032 85.0918 61.4278 86.5695 60.2583C88.0471 59.0887 89.4953 57.7205 90.9214 56.1538C92.3403 54.5944 93.6782 52.9467 94.9353 51.2181C96.1924 49.4895 97.3024 47.7756 98.2801 46.069C99.2579 44.3699 100.022 42.7884 100.581 41.3393C100.75 40.8906 101.044 40.589 101.456 40.4198C101.868 40.2506 102.309 40.3095 102.75 40.589L102.764 40.5964ZM78.2551 45.8704C77.9757 46.4883 77.7552 47.04 77.5861 47.5475C80.931 46.378 83.6804 44.7744 85.827 42.7369C87.9736 40.6993 89.5762 38.6912 90.6347 36.7125C91.6933 34.7338 92.2373 33.0199 92.2667 31.5635C92.2962 30.1144 91.8036 29.3568 90.8038 29.3053C89.2968 29.2538 87.4002 30.7029 85.1139 33.6599C82.8276 36.6169 80.5413 40.692 78.2551 45.8778V45.8704Z" fill="white"/>
<path d="M124.135 42.2735C123.686 43.2224 123.047 44.517 122.209 46.1647C121.371 47.8124 120.378 49.5704 119.239 51.4387C118.092 53.3071 116.857 55.1902 115.519 57.088C114.181 58.9857 112.799 60.7143 111.38 62.2738C109.961 63.8332 108.521 65.1204 107.072 66.1208C105.624 67.1285 104.227 67.6287 102.889 67.6287C101.772 67.6876 100.816 67.4596 100 66.9594C99.1917 66.4592 98.5375 65.7457 98.0376 64.8262C97.5377 63.9067 97.1995 62.7887 97.0304 61.4793C96.8614 60.17 96.8614 58.7577 97.0304 57.2498C97.251 55.4108 97.9494 52.8143 99.1182 49.4674C100.287 46.1205 101.684 42.45 103.301 38.4632C104.918 34.4764 106.617 30.4013 108.403 26.2453C110.189 22.0893 111.792 18.2643 113.211 14.7777C114.63 11.2911 115.732 8.3782 116.512 6.03171C117.291 3.68523 117.489 2.32442 117.1 1.92721C116.71 1.58884 116.894 1.19899 117.644 0.757642C118.393 0.308942 119.327 0.0588464 120.444 0.0073562C121.562 -0.044134 122.716 0.205961 123.914 0.757642C125.113 1.31668 125.965 2.43475 126.465 4.10451C126.855 5.33292 126.745 7.13508 126.127 9.50363C125.51 11.8722 124.605 14.5644 123.407 17.5802C122.209 20.5961 120.797 23.8473 119.18 27.334C117.563 30.8206 115.931 34.2704 114.284 37.6688C112.637 41.0745 111.079 44.3478 109.601 47.5034C108.124 50.659 106.925 53.4174 106.006 55.786C105.088 58.1545 104.558 60.045 104.419 61.4352C104.279 62.8328 104.683 63.4727 105.632 63.3624C106.19 63.3109 106.896 62.8622 107.763 62.0237C108.631 61.1851 109.587 60.1112 110.652 58.8018C111.711 57.4925 112.799 56.0287 113.916 54.4105C115.034 52.7922 116.092 51.1739 117.092 49.5557C118.099 47.9374 118.989 46.4074 119.768 44.951C120.547 43.5019 121.106 42.3029 121.444 41.354C121.613 40.9053 121.893 40.6331 122.282 40.5155C122.672 40.4051 123.032 40.4051 123.37 40.5155C123.708 40.6258 123.966 40.8538 124.164 41.1848C124.355 41.5232 124.348 41.8836 124.12 42.2735H124.135Z" fill="white"/>
<path d="M155.724 40.5964C156.393 41.0451 156.562 41.6556 156.223 42.4353C155.275 44.4434 154.143 46.5472 152.834 48.7539C151.526 50.9606 150.048 53.1085 148.402 55.1975C146.755 57.2866 145.013 59.2138 143.175 60.9718C141.337 62.7298 139.426 64.1642 137.448 65.2823C135.471 66.4003 133.449 67.1212 131.383 67.4596C129.318 67.7979 127.281 67.5405 125.274 66.7093C123.047 65.8192 121.444 64.5173 120.467 62.8181C119.489 61.1189 118.923 59.2358 118.754 57.1689C118.585 55.1019 118.754 52.9687 119.254 50.7694C119.753 48.5626 120.371 46.5398 121.091 44.7009C122.429 41.2952 123.922 38.4117 125.568 36.0358C127.215 33.6673 128.957 31.7253 130.795 30.2174C132.633 28.7095 134.53 27.5988 136.485 26.8705C138.433 26.1497 140.418 25.7819 142.425 25.7819C144.432 25.7819 146.005 26.2821 146.983 27.2898C147.961 28.2976 148.446 29.6069 148.446 31.2251C148.446 32.8434 147.997 34.6309 147.108 36.5801C146.218 38.5368 144.946 40.4419 143.3 42.3103C141.653 44.1786 139.661 45.8851 137.316 47.4151C134.971 48.9525 132.354 50.1073 129.45 50.8871C129.06 52.3361 128.781 53.7779 128.612 55.1975C128.443 56.6172 128.413 57.9192 128.531 59.0887C128.641 60.2583 128.906 61.2366 129.325 62.0163C129.744 62.796 130.369 63.2741 131.207 63.436C132.434 63.6566 133.758 63.4801 135.177 62.8916C136.595 62.3032 138.051 61.4278 139.529 60.2583C141.006 59.0887 142.454 57.7205 143.881 56.1538C145.299 54.5944 146.637 52.9467 147.894 51.2181C149.151 49.4895 150.262 47.7756 151.239 46.069C152.217 44.3699 152.982 42.7884 153.54 41.3393C153.709 40.8906 154.003 40.589 154.415 40.4198C154.827 40.2506 155.268 40.3095 155.709 40.589L155.724 40.5964ZM131.214 45.8704C130.935 46.4883 130.714 47.04 130.545 47.5475C133.89 46.378 136.639 44.7744 138.786 42.7369C140.933 40.6993 142.535 38.6912 143.594 36.7125C144.652 34.7338 145.196 33.0199 145.226 31.5635C145.255 30.1144 144.763 29.3568 143.763 29.3053C142.256 29.2538 140.359 30.7029 138.073 33.6599C135.787 36.6169 133.5 40.692 131.214 45.8778V45.8704Z" fill="white"/>
<path d="M165.824 61.1042C165.824 62.1634 165.347 62.9211 164.406 63.3624C164.744 64.0318 165.214 64.3701 165.824 64.3701C166.552 64.429 167.398 64.0759 168.375 63.3256C169.353 62.5753 170.382 61.4867 171.47 60.0597C172.558 58.64 173.69 56.8967 174.859 54.8297C176.028 52.7628 177.204 50.4237 178.373 47.7977C179.101 46.1794 179.696 44.4066 180.174 42.4794C180.645 40.5522 180.924 38.728 181.012 36.9994C181.093 35.2708 180.939 33.7776 180.549 32.5198C180.159 31.2619 179.432 30.4969 178.373 30.2174C177.087 29.9379 175.763 30.3277 174.403 31.387C173.036 32.4462 171.669 33.8732 170.301 35.6533C168.934 37.4408 167.596 39.4636 166.287 41.7218C164.979 43.98 163.788 46.1426 162.729 48.2096C161.722 50.3869 160.789 52.4391 159.929 54.359C159.061 56.2862 158.37 58.0148 157.841 59.5448C157.311 61.0821 156.937 62.3767 156.709 63.436C156.488 64.4952 156.488 65.2528 156.709 65.6942C156.929 66.1429 156.753 66.5989 156.165 67.0771C155.577 67.5552 154.827 67.7979 153.908 67.8273C152.989 67.8568 152.041 67.5625 151.063 66.952C150.085 66.3415 149.35 65.194 148.843 63.5169C148.505 62.5091 148.607 60.8982 149.137 58.6621C149.666 56.4333 150.475 53.822 151.563 50.8356C152.651 47.8491 153.923 44.6273 155.371 41.1701C156.819 37.7129 158.311 34.2263 159.848 30.7102C161.384 27.1942 162.862 23.7811 164.281 20.4563C165.699 17.1389 166.942 14.1672 168 11.5412C169.059 8.92252 169.838 6.74522 170.345 5.00927C170.845 3.28067 170.934 2.25086 170.595 1.9125C170.206 1.57413 170.39 1.18428 171.139 0.742933C171.889 0.294232 172.838 0.044137 173.984 -0.00735327C175.124 -0.0588435 176.285 0.191252 177.454 0.742933C178.623 1.30197 179.461 2.42004 179.961 4.0898C180.24 5.03869 180.196 6.37744 179.836 8.10604C179.476 9.83464 178.873 11.8428 178.035 14.1304C177.197 16.418 176.204 18.9116 175.065 21.6185C173.918 24.3255 172.683 27.0986 171.345 29.9452C173.183 28.2166 175.175 27.0177 177.329 26.3483C179.476 25.6789 181.806 25.8775 184.313 26.9367C186.54 27.8856 188.143 29.2097 189.121 30.9089C190.099 32.608 190.665 34.4764 190.834 36.5139C191.003 38.5515 190.834 40.6699 190.334 42.8767C189.834 45.0834 189.216 47.1062 188.496 48.9451C187.048 52.5715 185.43 55.6389 183.644 58.1545C181.858 60.6628 179.99 62.671 178.042 64.1789C180.828 63.5684 183.298 62.3767 185.445 60.6187C187.592 58.8607 189.643 56.8084 191.591 54.4693C193.429 52.292 195.09 50.0779 196.568 47.8124C198.045 45.5541 199.258 43.5019 200.207 41.663C200.376 41.2731 200.626 41.0083 200.956 40.8685C201.295 40.7288 201.706 40.8023 202.214 41.0745C202.603 41.2952 202.838 41.6041 202.927 41.994C203.007 42.3838 202.971 42.7442 202.802 43.0826C201.464 45.819 199.913 48.467 198.163 51.0342C196.406 53.6013 194.465 56.0876 192.348 58.4856C190.951 60.045 189.459 61.4867 187.871 62.796C186.283 64.1053 184.497 65.194 182.519 66.062C180.542 66.9299 178.292 67.5258 175.785 67.8641C173.279 68.2025 170.404 68.2025 167.17 67.8641C166.501 67.8053 165.788 67.6802 165.038 67.489C164.288 67.2977 163.59 66.9741 162.95 66.5254C162.31 66.0767 161.766 65.4809 161.318 64.7232C160.87 63.9729 160.649 63.0388 160.649 61.9207C160.649 60.8026 160.87 60.0229 161.318 59.5742C161.818 58.9637 162.457 58.6547 163.244 58.6547C163.913 58.6547 164.508 58.8754 165.045 59.3241C165.574 59.7728 165.839 60.3539 165.839 61.0821L165.824 61.1042Z" fill="white"/>
<path d="M201.684 43.112C201.515 43.4504 201.25 43.6711 200.89 43.7814C200.53 43.8917 200.192 43.8917 199.883 43.7814C199.574 43.6711 199.324 43.4577 199.133 43.1562C198.942 42.8472 198.927 42.4721 199.089 42.0234C199.258 41.5232 199.56 40.7582 200.008 39.721C200.457 38.6912 200.898 37.6026 201.346 36.4551C201.794 35.3149 202.236 34.1969 202.684 33.1082C203.132 32.0196 203.434 31.1148 203.603 30.3866C202.316 29.7761 201.221 28.7977 200.302 27.459C199.383 26.1203 198.92 24.7815 198.92 23.4428C198.92 21.7142 199.369 20.2357 200.258 19.0072C201.148 17.7788 202.486 17.1683 204.272 17.1683C205.389 17.1683 206.345 17.6317 207.161 18.5512C207.97 19.4707 208.403 20.574 208.455 21.8539C208.455 22.5821 208.411 23.5825 208.33 24.8698C208.249 26.157 208.095 27.2163 207.867 28.0475C208.146 28.2681 208.521 28.4079 208.999 28.4667C209.469 28.5256 209.991 28.5476 210.543 28.5476C211.77 28.5476 212.733 28.4079 213.432 28.1284C214.13 27.8489 214.726 27.5546 215.233 27.253C215.733 26.9441 216.24 26.6572 216.74 26.3777C217.24 26.0982 217.909 25.9584 218.747 25.9584C219.864 25.9584 220.974 26.2379 222.092 26.797C223.209 27.356 224.018 28.4447 224.518 30.0629C225.017 31.6812 224.937 33.6525 224.268 35.9622C223.599 38.2793 222.665 40.692 221.467 43.2003C220.268 45.7086 218.982 48.1948 217.622 50.6517C216.255 53.1085 215.115 55.2931 214.189 57.2204C213.27 59.1476 212.741 60.6776 212.601 61.8251C212.461 62.9725 213.035 63.4874 214.314 63.3698C214.814 63.3183 215.512 62.8696 216.402 62.031C217.291 61.1925 218.269 60.1185 219.327 58.8092C220.386 57.4999 221.474 56.0361 222.591 54.4178C223.709 52.7995 224.767 51.1813 225.767 49.563C226.774 47.9448 227.664 46.4148 228.443 44.9583C229.222 43.5092 229.781 42.3102 230.119 41.3614C230.288 40.9127 230.568 40.6405 230.957 40.5228C231.347 40.4125 231.707 40.4125 232.045 40.5228C232.383 40.6331 232.641 40.8612 232.839 41.1922C233.038 41.5305 233.023 41.891 232.795 42.2808C232.347 43.2297 231.707 44.5243 230.869 46.172C230.031 47.8197 229.039 49.5777 227.899 51.4461C226.752 53.3144 225.517 55.1975 224.179 57.0953C222.841 58.9931 221.459 60.7217 220.041 62.2811C218.622 63.8405 217.181 65.1278 215.733 66.1282C214.284 67.1359 212.888 67.6361 211.55 67.6361C210.432 67.6949 209.469 67.4669 208.661 66.9667C207.852 66.4665 207.198 65.753 206.698 64.8336C206.198 63.9141 205.86 62.796 205.691 61.4867C205.522 60.1774 205.522 58.7651 205.691 57.2571C205.911 55.0798 206.441 52.7628 207.279 50.3133C208.117 47.8565 209.036 45.4438 210.035 43.0752C211.042 40.7067 212.013 38.4853 212.961 36.4183C213.91 34.3513 214.608 32.6007 215.049 31.1442C213.88 31.5929 212.55 31.8577 211.079 31.9386C209.602 32.0196 208.139 31.8724 206.69 31.4752C206.521 31.8651 206.227 32.5786 205.816 33.6084C205.397 34.6382 204.941 35.7563 204.434 36.9553C203.934 38.1543 203.426 39.3238 202.927 40.4713C202.427 41.6188 202.008 42.4941 201.67 43.1047L201.684 43.112Z" fill="white"/>
<path d="M252.372 32.5639C252.372 32.1152 252.497 31.6959 252.747 31.3061C252.997 30.9162 253.32 30.5852 253.71 30.2983C253.43 29.6289 252.982 29.2906 252.372 29.2906C251.593 29.2391 250.725 29.5848 249.777 30.3351C248.828 31.0854 247.814 32.174 246.726 33.6011C245.638 35.0207 244.506 36.7787 243.337 38.8751C242.168 40.9715 240.992 43.2959 239.823 45.8631C239.095 47.4814 238.5 49.2247 238.022 51.093C237.544 52.9614 237.279 54.7488 237.228 56.448C237.169 58.1472 237.338 59.6404 237.728 60.9277C238.118 62.2149 238.816 63.0461 239.816 63.436C240.595 63.7743 241.418 63.6861 242.286 63.1859C243.153 62.6857 244.013 61.906 244.881 60.8394C245.748 59.7802 246.638 58.4929 247.557 56.9923C248.476 55.4844 249.365 53.9103 250.233 52.2626C251.093 50.6149 251.931 48.9746 252.739 47.3269C253.548 45.6792 254.313 44.1639 255.04 42.7663C255.82 40.9274 256.584 39.1841 257.341 37.5364C258.091 35.8887 258.723 34.4102 259.223 33.1009C259.723 31.7915 260.061 30.6735 260.23 29.754C260.399 28.8345 260.311 28.2093 259.98 27.8709C259.591 27.5326 259.775 27.1501 260.524 26.7014C261.274 26.2527 262.208 26.0026 263.325 25.9511C264.443 25.8996 265.597 26.1497 266.795 26.7014C267.993 27.2604 268.846 28.3785 269.346 30.0482C269.846 31.6665 269.765 33.6378 269.096 35.9475C268.427 38.2646 267.494 40.6773 266.295 43.1856C265.097 45.6939 263.81 48.1801 262.451 50.637C261.083 53.0938 259.944 55.2784 259.017 57.2057C258.098 59.1329 257.569 60.6629 257.43 61.8104C257.29 62.9578 257.863 63.4728 259.142 63.3551C259.642 63.3036 260.341 62.8549 261.23 62.0163C262.12 61.1778 263.097 60.1038 264.156 58.7945C265.215 57.4852 266.317 56.0214 267.457 54.4031C268.596 52.7848 269.662 51.1666 270.633 49.5483C271.61 47.9301 272.485 46.4001 273.264 44.9436C274.044 43.4945 274.602 42.2955 274.94 41.3467C275.11 40.898 275.389 40.6258 275.778 40.5081C276.168 40.3978 276.528 40.3978 276.866 40.5081C277.205 40.6184 277.462 40.8465 277.66 41.1775C277.852 41.5158 277.844 41.8763 277.616 42.2661C277.168 43.215 276.528 44.5096 275.69 46.1573C274.852 47.805 273.86 49.563 272.72 51.4314C271.574 53.2997 270.338 55.1828 269.001 57.0806C267.663 58.9784 266.281 60.707 264.862 62.2664C263.443 63.8258 262.002 65.1131 260.554 66.1135C259.106 67.1212 257.709 67.6214 256.371 67.6214C254.254 67.7317 252.658 66.8711 251.6 65.0248C250.541 63.1859 250.152 60.8394 250.431 57.9927C249.372 59.7213 248.255 61.2954 247.086 62.7225C245.917 64.1421 244.646 65.2749 243.278 66.1135C241.911 66.952 240.463 67.4522 238.926 67.6214C237.39 67.7906 235.706 67.4816 233.868 66.7019C231.641 65.8119 230.038 64.4952 229.061 62.7666C228.083 61.038 227.517 59.1549 227.348 57.1174C227.179 55.0798 227.348 52.9614 227.848 50.7547C228.348 48.5479 228.965 46.5251 229.686 44.6862C231.023 41.2805 232.516 38.3676 234.163 35.9402C235.809 33.5128 237.551 31.5341 239.389 29.9967C241.227 28.4594 243.124 27.3634 245.079 26.694C247.027 26.0246 249.012 25.7157 251.019 25.7745C251.688 25.8334 252.401 25.9584 253.151 26.1497C253.901 26.3483 254.599 26.6646 255.239 27.1133C255.878 27.562 256.422 28.1578 256.871 28.9154C257.319 29.6657 257.54 30.5999 257.54 31.718C257.54 32.9464 257.26 33.7849 256.702 34.2263C256.253 34.7265 255.673 34.9766 254.945 34.9766C254.276 34.9766 253.673 34.7559 253.144 34.3072C252.614 33.8585 252.35 33.2774 252.35 32.5492L252.372 32.5639Z" fill="white"/>
<path d="M265.126 22.3541C265.075 23.1338 264.854 23.6487 264.472 23.8988C264.09 24.1489 263.671 24.1195 263.208 23.8179C262.745 23.509 262.362 22.9279 262.061 22.0599C261.759 21.1919 261.664 20.0371 261.774 18.588C261.995 16.2415 262.899 14.4614 264.487 13.233C266.082 12.0046 268.14 11.1807 270.684 10.7615C273.22 10.3422 276.095 10.1877 279.3 10.298C282.505 10.4084 285.835 10.6364 289.298 10.9674C290.246 8.45911 290.944 6.39214 291.385 4.77388C291.834 3.15562 291.915 2.20672 291.635 1.92721C291.246 1.58884 291.43 1.19899 292.179 0.757642C292.929 0.308942 293.863 0.0588464 294.98 0.0073562C296.098 -0.044134 297.252 0.205961 298.45 0.757642C299.648 1.31668 300.501 2.43475 301.001 4.10451C301.28 4.88422 301.31 5.94344 301.082 7.28219C300.861 8.62094 300.494 10.1289 299.994 11.7986C302.449 11.909 304.897 11.909 307.353 11.7986C309.808 11.6883 312.006 11.475 313.961 11.1734C315.909 10.8644 317.49 10.4599 318.688 9.95968C319.887 9.45949 320.489 8.84161 320.489 8.12075C320.489 7.28219 320.739 6.85556 321.239 6.82613C321.739 6.79671 322.246 7.01003 322.746 7.45137C323.246 7.90007 323.599 8.48118 323.79 9.2094C323.981 9.93762 323.746 10.607 323.077 11.2175C322.349 11.9457 321.195 12.6298 319.607 13.2698C318.019 13.9097 316.123 14.4688 313.917 14.9469C311.712 15.425 309.279 15.8222 306.595 16.1606C303.912 16.4989 301.126 16.6902 298.229 16.749C297.061 19.7649 295.649 23.0235 294.002 26.5395C292.356 30.0556 290.709 33.5569 289.07 37.0435C287.423 40.5302 285.835 43.877 284.299 47.0841C282.762 50.2912 281.542 53.1085 280.616 55.5359C279.697 57.9633 279.138 59.9052 278.94 61.3543C278.741 62.8034 279.145 63.4727 280.153 63.3624C280.711 63.3109 281.417 62.8622 282.284 62.0237C283.152 61.1851 284.108 60.1112 285.174 58.8018C286.232 57.4925 287.32 56.0287 288.437 54.4105C289.555 52.7922 290.614 51.1739 291.613 49.5557C292.62 47.9374 293.51 46.4074 294.289 44.951C295.068 43.5019 295.627 42.3029 295.965 41.354C296.134 40.9053 296.414 40.6331 296.803 40.5155C297.193 40.4051 297.553 40.4051 297.891 40.5155C298.23 40.6258 298.487 40.8538 298.685 41.1848C298.876 41.5232 298.869 41.8836 298.641 42.2735C298.193 43.2224 297.553 44.517 296.715 46.1647C295.877 47.8124 294.885 49.5704 293.745 51.4387C292.598 53.3071 291.363 55.1902 290.025 57.088C288.687 58.9857 287.305 60.7143 285.887 62.2738C284.468 63.8332 283.027 65.1204 281.579 66.1208C280.13 67.1285 278.734 67.6287 277.396 67.6287C276.278 67.6876 275.323 67.4596 274.507 66.9594C273.698 66.4592 273.044 65.7457 272.544 64.8262C272.044 63.9067 271.706 62.7887 271.537 61.4793C271.368 60.17 271.368 58.7577 271.537 57.2498C271.757 55.5212 272.412 53.0791 273.5 49.9235C274.588 46.7752 275.881 43.3106 277.388 39.5445C278.895 35.7784 280.498 31.9019 282.196 27.9077C283.894 23.9209 285.475 20.1915 286.923 16.7343C284.027 16.7343 281.263 16.7785 278.646 16.8594C276.028 16.9403 273.727 17.183 271.743 17.5729C269.765 17.9627 268.177 18.5365 266.972 19.2868C265.773 20.0371 265.148 21.0595 265.09 22.3394L265.126 22.3541Z" fill="white"/>
<path d="M330.281 40.5964C330.95 41.0451 331.119 41.6556 330.781 42.4353C329.833 44.4434 328.701 46.5472 327.392 48.7539C326.084 50.9606 324.606 53.1085 322.959 55.1975C321.313 57.2866 319.57 59.2138 317.733 60.9718C315.895 62.7298 313.983 64.1642 312.006 65.2823C310.028 66.4003 308.007 67.1212 305.941 67.4596C303.875 67.7979 301.839 67.5405 299.832 66.7093C297.605 65.8192 296.002 64.5173 295.024 62.8181C294.047 61.1189 293.481 59.2358 293.311 57.1689C293.142 55.1019 293.311 52.9687 293.811 50.7694C294.311 48.5626 294.929 46.5398 295.649 44.7009C296.987 41.2952 298.479 38.4117 300.126 36.0358C301.773 33.6673 303.515 31.7253 305.353 30.2174C307.191 28.7095 309.087 27.5988 311.043 26.8705C312.991 26.1497 314.976 25.7819 316.983 25.7819C318.99 25.7819 320.563 26.2821 321.541 27.2898C322.518 28.2976 323.004 29.6069 323.004 31.2251C323.004 32.8434 322.555 34.6309 321.666 36.5801C320.776 38.5368 319.504 40.4419 317.858 42.3103C316.211 44.1786 314.219 45.8851 311.874 47.4151C309.529 48.9525 306.911 50.1073 304.008 50.8871C303.618 52.3361 303.339 53.7779 303.17 55.1975C303.001 56.6172 302.971 57.9192 303.089 59.0887C303.199 60.2583 303.464 61.2366 303.883 62.0163C304.302 62.796 304.927 63.2741 305.765 63.436C306.992 63.6566 308.316 63.4801 309.734 62.8916C311.153 62.3032 312.609 61.4278 314.086 60.2583C315.564 59.0887 317.012 57.7205 318.438 56.1538C319.857 54.5944 321.195 52.9467 322.452 51.2181C323.709 49.4895 324.819 47.7756 325.797 46.069C326.775 44.3699 327.539 42.7884 328.098 41.3393C328.267 40.8906 328.561 40.589 328.973 40.4198C329.385 40.2506 329.826 40.3095 330.267 40.589L330.281 40.5964ZM305.772 45.8704C305.493 46.4883 305.272 47.04 305.103 47.5475C308.448 46.378 311.197 44.7744 313.344 42.7369C315.49 40.6993 317.093 38.6912 318.152 36.7125C319.21 34.7338 319.754 33.0199 319.784 31.5635C319.813 30.1144 319.321 29.3568 318.321 29.3053C316.814 29.2538 314.917 30.7029 312.631 33.6599C310.345 36.6169 308.058 40.692 305.772 45.8778V45.8704Z" fill="white"/>
<path d="M177.579 84.9221C177.189 86.3712 176.351 87.5702 175.072 88.5191C173.786 89.468 172.507 90.152 171.228 90.5713C169.941 90.9906 168.897 91.1304 168.089 90.9906C167.28 90.8508 167.155 90.4168 167.714 89.696C169.11 87.7982 169.537 86.2241 169.007 84.9662C168.478 83.7084 167.331 82.7742 165.574 82.1637C163.817 81.5532 161.605 81.2884 158.921 81.3693C156.238 81.4502 153.452 81.9136 150.556 82.7522C144.366 84.5396 138.566 87.1435 133.155 90.5787C127.744 94.0138 122.848 98.111 118.474 102.885C114.093 107.659 110.292 113.014 107.058 118.957C103.823 124.901 101.287 131.278 99.449 138.082C106.249 136.523 111.718 134.147 115.843 130.969C116.732 130.359 117.519 130.41 118.188 131.138C118.467 131.528 118.548 131.947 118.438 132.396C118.327 132.845 118.077 133.205 117.688 133.485C112.836 137.332 106.506 140.017 98.6992 141.517C98.0302 145.482 97.8758 149.27 98.236 152.897C98.5963 156.523 99.3681 159.929 100.537 163.106C100.816 163.886 100.706 164.541 100.199 165.07C99.699 165.6 98.9712 166.034 98.0228 166.365C97.0745 166.703 95.9865 166.909 94.7588 166.99C93.5312 167.071 92.3623 167.056 91.2449 166.946C90.1275 166.836 89.1277 166.586 88.2309 166.196C87.3413 165.806 86.7826 165.306 86.5547 164.688C85.5476 162.231 84.8713 159.914 84.5037 157.744C84.1435 155.567 83.945 153.588 83.9156 151.801C83.8862 150.013 83.9303 148.395 84.0406 146.946C84.1508 145.497 84.2097 144.239 84.2097 143.18C81.4235 143.29 78.5785 143.275 75.6748 143.135C72.771 142.996 69.7349 142.79 66.5591 142.51C65.8901 143.798 65.2064 145.011 64.508 146.151C63.8097 147.299 63.0745 148.424 62.2879 149.542C60.3325 152.22 58.1712 154.618 55.8041 156.744C53.4296 158.862 50.9375 160.65 48.3204 162.099C44.6962 164.048 41.1528 165.166 37.6977 165.445C37.4771 165.497 37.2493 165.526 37.0287 165.526H36.2789C34.272 165.526 32.4341 165.188 30.758 164.519C30.6992 164.46 30.6477 164.438 30.5889 164.438C29.6994 164.048 29.001 163.629 28.5011 163.18C27.2147 162.231 26.2443 161.061 25.5753 159.664C24.9063 158.266 24.5976 156.736 24.6564 155.059C24.7079 153.331 25.1195 151.573 25.8694 149.785C26.6192 147.998 27.6925 146.328 29.0893 144.761C30.2067 143.422 31.5593 142.223 33.1472 141.164C34.7351 140.105 36.4259 139.215 38.2049 138.487C39.712 137.876 41.2704 137.413 42.8877 137.104C44.505 136.795 46.1811 136.618 47.9087 136.559C49.0776 136.559 50.195 136.618 51.2536 136.729C52.3122 136.839 53.4002 136.979 54.5176 137.148C55.3556 135.14 56.0393 133.146 56.5686 131.16C57.0979 129.182 57.561 127.188 57.9506 125.173C58.3403 123.165 58.7005 121.171 59.0386 119.185C59.3768 117.206 59.7664 115.213 60.2075 113.198C59.318 112.587 58.5093 111.932 57.7816 111.234C57.0538 110.535 56.3039 109.829 55.5247 109.1C55.4144 108.931 55.2895 108.777 55.1498 108.637C55.0101 108.497 54.8851 108.372 54.7749 108.262C53.3267 106.813 51.849 105.43 50.342 104.121C48.835 102.811 47.1368 101.767 45.2402 100.98C43.0642 100.09 40.8882 99.6851 38.7122 99.766C36.5362 99.8469 34.5881 100.369 32.8605 101.311C31.1329 102.26 29.7215 103.628 28.6335 105.415C27.5455 107.203 26.9721 109.321 26.9206 111.778C26.9206 112.506 26.4428 113.05 25.5018 113.411C24.5535 113.771 23.5096 113.955 22.3628 113.955C21.216 113.955 20.1868 113.749 19.2679 113.33C18.3489 112.911 17.9152 112.285 17.974 111.447C18.0843 109.498 18.6136 107.695 19.5619 106.048C20.5102 104.4 21.7526 102.951 23.2817 101.693C24.8181 100.435 26.5751 99.3909 28.5526 98.5523C30.5301 97.7137 32.5811 97.1179 34.6983 96.7501C36.8155 96.3897 38.9254 96.3014 41.0131 96.5001C43.1009 96.6987 45.0417 97.1547 46.8281 97.8829C49.0041 98.773 50.9154 99.9352 52.5548 101.355C54.2015 102.774 55.7746 104.246 57.2817 105.746L58.1197 106.497C58.5682 106.997 59.0386 107.49 59.5385 107.96C60.0384 108.438 60.5677 108.894 61.1264 109.343C61.4058 108.394 61.7145 107.416 62.0453 106.416C62.3835 105.408 62.7731 104.437 63.2142 103.488C64.5522 100.31 66.3606 97.5446 68.6542 95.2054C70.9405 92.8589 73.5576 91.1304 76.5201 90.0196C78.9755 89.0707 81.3867 88.6809 83.7539 88.8501C86.121 89.0193 88.2529 89.6886 90.1496 90.8582C90.9288 91.1966 91.6125 91.6673 92.2006 92.2778C92.7887 92.8957 93.2151 93.6166 93.4944 94.4552C94.1046 96.0146 94.1928 97.7726 93.7444 99.7292C93.4062 101.347 92.7372 103.135 91.7374 105.084C90.9582 106.533 90.0613 107.887 89.0616 109.145C88.0544 110.402 86.9444 111.506 85.7167 112.447C83.0408 114.683 79.9753 116.184 76.5128 116.964C76.0644 117.074 75.6453 117.162 75.2557 117.214C74.8661 117.273 74.4471 117.324 73.9986 117.383C73.2709 120.958 72.4916 124.592 71.6536 128.306C70.8155 132.021 69.5878 135.662 67.9705 139.23C70.9846 139.509 73.881 139.708 76.6672 139.818C79.4533 139.928 82.1586 139.928 84.7831 139.818C85.452 134.743 86.8488 129.792 88.966 124.959C91.0832 120.134 93.7885 115.574 97.0819 111.278C100.368 106.982 104.147 102.98 108.418 99.2658C112.681 95.5585 117.313 92.2631 122.304 89.387C127.296 86.5109 132.567 84.1424 138.11 82.274C143.66 80.4057 149.357 79.1111 155.216 78.3828C158.451 77.993 161.502 77.8238 164.376 77.8827C167.25 77.9415 169.713 78.2284 171.779 78.758C173.845 79.2876 175.418 80.0673 176.506 81.1045C177.594 82.1343 177.939 83.4068 177.55 84.9148L177.579 84.9221ZM28.016 154.64C27.9571 155.809 28.1556 156.942 28.6041 158.031C29.0525 159.12 29.7435 159.914 30.6918 160.414C32.1401 161.194 33.6765 161.378 35.2938 160.958C36.9111 160.539 38.5137 159.759 40.1016 158.612C41.6895 157.464 43.2259 156.074 44.7035 154.427C46.1811 152.779 47.4897 151.094 48.6365 149.366C49.776 147.637 50.739 145.975 51.5256 144.386C52.3048 142.797 52.8047 141.473 53.0326 140.414C51.3565 140.075 49.5775 139.914 47.6808 139.914H47.4309C44.3065 140.024 41.491 140.554 38.9842 141.503C35.8598 142.79 33.3236 144.548 31.3755 146.777C30.3169 147.946 29.4936 149.233 28.9055 150.624C28.3174 152.021 28.0307 153.36 28.0307 154.64H28.016ZM90.5024 99.5674C90.7818 98.2287 90.723 97.0591 90.3333 96.0513C89.8849 94.9333 89.2453 94.2418 88.4073 93.9623C87.9074 93.7931 87.4001 93.7122 86.9003 93.7122C86.2313 93.7122 85.5329 93.852 84.8125 94.1315C83.9744 94.4699 83.0849 94.9995 82.1366 95.7203C81.747 96.1102 81.3573 96.5148 80.9677 96.934C80.5781 97.3533 80.2399 97.7873 79.9606 98.2286C79.2916 99.1775 78.7476 100.171 78.3286 101.2C77.9096 102.23 77.5052 103.253 77.1156 104.253C76.6157 105.871 76.1673 107.49 75.7777 109.108C75.388 110.726 75.0278 112.344 74.6897 113.963C75.1381 113.963 75.6674 113.882 76.2776 113.712C79.0637 113.102 81.5999 111.874 83.8862 110.027C85.8343 108.35 87.481 106.291 88.819 103.834C89.2674 103.054 89.6129 102.296 89.8628 101.576C90.1128 100.855 90.326 100.178 90.4877 99.5674H90.5024Z" fill="white"/>
<path d="M140.661 113.293C140.661 112.845 140.786 112.425 141.036 112.035C141.286 111.646 141.609 111.315 141.999 111.028C141.719 110.358 141.271 110.02 140.661 110.02C139.881 109.968 139.014 110.314 138.066 111.064C137.117 111.815 136.103 112.903 135.015 114.33C133.927 115.75 132.795 117.508 131.626 119.604C130.457 121.701 129.281 124.025 128.112 126.592C127.384 128.211 126.789 129.954 126.311 131.822C125.833 133.691 125.568 135.478 125.517 137.177C125.458 138.877 125.627 140.37 126.017 141.657C126.406 142.944 127.105 143.775 128.105 144.165C128.884 144.504 129.707 144.415 130.575 143.915C131.442 143.415 132.302 142.635 133.17 141.569C134.037 140.509 134.927 139.222 135.846 137.722C136.764 136.214 137.654 134.64 138.521 132.992C139.382 131.344 140.22 129.704 141.028 128.056C141.837 126.409 142.601 124.893 143.329 123.496C144.108 121.657 144.873 119.913 145.63 118.266C146.38 116.618 147.012 115.14 147.512 113.83C148.012 112.521 148.35 111.403 148.519 110.483C148.688 109.564 148.6 108.939 148.269 108.6C147.88 108.262 148.063 107.879 148.813 107.431C149.563 106.982 150.497 106.732 151.614 106.68C152.732 106.629 153.886 106.879 155.084 107.431C156.282 107.99 157.135 109.108 157.635 110.778C158.135 112.396 158.054 114.367 157.385 116.677C156.716 118.994 155.782 121.407 154.584 123.915C153.386 126.423 152.099 128.909 150.739 131.366C149.372 133.823 148.233 136.008 147.306 137.935C146.387 139.862 145.858 141.392 145.718 142.54C145.579 143.687 146.152 144.202 147.431 144.084C147.931 144.033 148.63 143.584 149.519 142.746C150.409 141.907 151.386 140.833 152.445 139.524C153.503 138.214 154.606 136.751 155.746 135.132C156.885 133.514 157.951 131.896 158.921 130.278C159.899 128.659 160.774 127.129 161.553 125.673C162.332 124.224 162.891 123.025 163.229 122.076C163.398 121.627 163.678 121.355 164.067 121.237C164.457 121.127 164.817 121.127 165.155 121.237C165.494 121.348 165.751 121.576 165.949 121.907C166.14 122.245 166.133 122.606 165.905 122.995C165.457 123.944 164.817 125.239 163.979 126.887C163.141 128.534 162.149 130.292 161.009 132.161C159.862 134.029 158.627 135.912 157.289 137.81C155.951 139.708 154.569 141.436 153.151 142.996C151.732 144.555 150.291 145.842 148.843 146.843C147.395 147.851 145.998 148.351 144.66 148.351C142.543 148.461 140.947 147.6 139.889 145.754C138.83 143.915 138.441 141.569 138.72 138.722C137.661 140.451 136.544 142.025 135.375 143.452C134.206 144.871 132.934 146.004 131.567 146.843C130.2 147.681 128.752 148.182 127.215 148.351C125.679 148.52 123.995 148.211 122.157 147.431C119.93 146.541 118.327 145.225 117.35 143.496C116.372 141.767 115.806 139.884 115.637 137.847C115.468 135.809 115.637 133.691 116.137 131.484C116.636 129.277 117.254 127.254 117.974 125.415C119.312 122.01 120.805 119.097 122.451 116.67C124.098 114.242 125.84 112.263 127.678 110.726C129.516 109.189 131.413 108.093 133.368 107.423C135.316 106.754 137.301 106.445 139.308 106.504C139.977 106.563 140.69 106.688 141.44 106.879C142.19 107.078 142.888 107.394 143.528 107.843C144.167 108.291 144.711 108.887 145.16 109.645C145.608 110.395 145.829 111.329 145.829 112.447C145.829 113.676 145.549 114.514 144.991 114.956C144.542 115.456 143.961 115.706 143.234 115.706C142.565 115.706 141.962 115.485 141.433 115.037C140.903 114.588 140.639 114.007 140.639 113.279L140.661 113.293Z" fill="white"/>
<path d="M176.263 141.834C176.263 142.893 175.785 143.65 174.844 144.092C175.183 144.761 175.653 145.099 176.263 145.099C176.991 145.158 177.836 144.805 178.814 144.055C179.792 143.305 180.821 142.216 181.909 140.789C182.997 139.369 184.129 137.626 185.298 135.559C186.467 133.492 187.643 131.153 188.812 128.527C189.54 126.909 190.135 125.136 190.613 123.209C191.084 121.282 191.363 119.457 191.451 117.729C191.532 116 191.378 114.507 190.988 113.249C190.598 111.991 189.871 111.226 188.812 110.947C187.864 110.726 186.871 110.895 185.842 111.447C184.813 112.006 183.776 112.83 182.747 113.918C181.718 115.007 180.681 116.302 179.652 117.81C178.623 119.318 177.631 120.877 176.682 122.495C175.565 125.393 174.242 128.534 172.713 131.911C171.176 135.287 169.588 138.722 167.942 142.209C166.295 145.695 164.692 149.086 163.134 152.374C161.575 155.67 160.208 158.678 159.032 161.415C157.863 164.151 156.981 166.461 156.4 168.358C155.812 170.256 155.687 171.536 156.025 172.205C156.246 172.654 156.069 173.11 155.481 173.588C154.893 174.059 154.143 174.309 153.224 174.339C152.305 174.368 151.357 174.074 150.379 173.463C149.401 172.845 148.666 171.705 148.159 170.028C147.821 169.02 147.924 167.402 148.453 165.173C148.982 162.945 149.791 160.333 150.879 157.347C151.967 154.36 153.239 151.139 154.687 147.681C156.135 144.224 157.628 140.738 159.164 137.221C160.7 133.705 162.178 130.292 163.597 126.968C165.016 123.65 166.258 120.678 167.317 118.052C168.375 115.434 169.154 113.256 169.662 111.52C170.162 109.792 170.25 108.762 169.912 108.424C169.522 108.085 169.706 107.703 170.456 107.254C171.206 106.805 172.154 106.555 173.301 106.504C174.44 106.452 175.602 106.702 176.77 107.254C177.939 107.813 178.777 108.931 179.277 110.601C179.446 111.219 179.476 112.109 179.358 113.279C181.475 110.711 183.791 108.828 186.298 107.629C188.805 106.43 191.62 106.445 194.745 107.673C196.972 108.622 198.575 109.946 199.552 111.646C200.53 113.345 201.096 115.213 201.265 117.251C201.434 119.288 201.265 121.407 200.765 123.613C200.265 125.82 199.648 127.843 198.927 129.682C197.479 133.308 195.862 136.376 194.076 138.891C192.289 141.4 190.422 143.408 188.474 144.916C191.26 144.305 193.73 143.113 195.877 141.355C198.023 139.597 200.074 137.545 202.022 135.206C203.86 133.029 205.522 130.815 206.999 128.549C208.477 126.291 209.69 124.239 210.638 122.4C210.807 122.01 211.057 121.745 211.388 121.605C211.726 121.465 212.138 121.539 212.645 121.811C213.035 122.032 213.27 122.341 213.358 122.731C213.439 123.121 213.402 123.481 213.233 123.819C211.895 126.556 210.344 129.204 208.594 131.771C206.838 134.338 204.897 136.824 202.78 139.222C201.383 140.782 199.905 142.223 198.347 143.533C196.788 144.842 195.046 145.931 193.12 146.799C191.194 147.667 189.062 148.262 186.724 148.601C184.386 148.939 181.762 148.939 178.858 148.601H177.601C176.932 148.542 176.219 148.417 175.469 148.226C174.719 148.034 174.021 147.711 173.382 147.262C172.742 146.813 172.198 146.218 171.75 145.46C171.301 144.71 171.081 143.775 171.081 142.657C171.081 141.429 171.33 140.62 171.83 140.23C172.389 139.671 172.999 139.391 173.668 139.391C174.337 139.391 174.933 139.612 175.469 140.061C175.999 140.509 176.263 141.091 176.263 141.819V141.834Z" fill="white"/>
<path d="M223.135 141.834C223.135 142.893 222.658 143.65 221.717 144.092C222.055 144.761 222.525 145.099 223.135 145.099C223.863 145.158 224.709 144.805 225.686 144.055C226.664 143.305 227.693 142.216 228.781 140.789C229.869 139.369 231.001 137.626 232.17 135.559C233.339 133.492 234.515 131.153 235.684 128.527C236.412 126.909 237.007 125.136 237.485 123.209C237.956 121.282 238.235 119.457 238.323 117.729C238.404 116 238.25 114.507 237.86 113.249C237.471 111.991 236.743 111.226 235.684 110.947C234.736 110.726 233.743 110.895 232.714 111.447C231.685 112.006 230.649 112.83 229.619 113.918C228.59 115.007 227.554 116.302 226.524 117.81C225.495 119.318 224.503 120.877 223.554 122.495C222.437 125.393 221.114 128.534 219.585 131.911C218.048 135.287 216.46 138.722 214.814 142.209C213.167 145.695 211.564 149.086 210.006 152.374C208.447 155.67 207.08 158.678 205.904 161.415C204.735 164.151 203.853 166.461 203.272 168.358C202.684 170.256 202.559 171.536 202.897 172.205C203.118 172.654 202.941 173.11 202.353 173.588C201.765 174.059 201.015 174.309 200.096 174.339C199.177 174.368 198.229 174.074 197.251 173.463C196.274 172.845 195.538 171.705 195.031 170.028C194.693 169.02 194.796 167.402 195.325 165.173C195.855 162.945 196.663 160.333 197.751 157.347C198.839 154.36 200.111 151.139 201.559 147.681C203.007 144.224 204.5 140.738 206.036 137.221C207.573 133.705 209.05 130.292 210.469 126.968C211.888 123.65 213.13 120.678 214.189 118.052C215.247 115.434 216.027 113.256 216.534 111.52C217.034 109.792 217.122 108.762 216.784 108.424C216.394 108.085 216.578 107.703 217.328 107.254C218.078 106.805 219.026 106.555 220.173 106.504C221.312 106.452 222.474 106.702 223.643 107.254C224.812 107.813 225.65 108.931 226.149 110.601C226.319 111.219 226.348 112.109 226.23 113.279C228.348 110.711 230.663 108.828 233.17 107.629C235.677 106.43 238.492 106.445 241.617 107.673C243.844 108.622 245.447 109.946 246.424 111.646C247.402 113.345 247.968 115.213 248.137 117.251C248.306 119.288 248.137 121.407 247.637 123.613C247.138 125.82 246.52 127.843 245.8 129.682C244.351 133.308 242.734 136.376 240.948 138.891C239.161 141.4 237.294 143.408 235.346 144.916C238.132 144.305 240.602 143.113 242.749 141.355C244.895 139.597 246.946 137.545 248.895 135.206C250.732 133.029 252.394 130.815 253.871 128.549C255.349 126.291 256.562 124.239 257.51 122.4C257.679 122.01 257.929 121.745 258.26 121.605C258.598 121.465 259.01 121.539 259.517 121.811C259.907 122.032 260.142 122.341 260.23 122.731C260.311 123.121 260.274 123.481 260.105 123.819C258.767 126.556 257.216 129.204 255.467 131.771C253.71 134.338 251.769 136.824 249.652 139.222C248.255 140.782 246.777 142.223 245.219 143.533C243.66 144.842 241.918 145.931 239.992 146.799C238.066 147.667 235.934 148.262 233.596 148.601C231.259 148.939 228.634 148.939 225.73 148.601H224.473C223.804 148.542 223.091 148.417 222.341 148.226C221.592 148.034 220.893 147.711 220.254 147.262C219.614 146.813 219.07 146.218 218.622 145.46C218.173 144.71 217.953 143.775 217.953 142.657C217.953 141.429 218.203 140.62 218.703 140.23C219.261 139.671 219.871 139.391 220.54 139.391C221.209 139.391 221.805 139.612 222.341 140.061C222.871 140.509 223.135 141.091 223.135 141.819V141.834Z" fill="white"/>
<path d="M278.998 126.894C278.16 128.542 277.168 130.3 276.028 132.168C274.882 134.036 273.647 135.92 272.309 137.817C270.971 139.715 269.589 141.444 268.17 143.003C266.751 144.563 265.31 145.85 263.862 146.85C262.414 147.858 261.017 148.358 259.679 148.358C258.562 148.417 257.606 148.189 256.79 147.689C255.981 147.189 255.327 146.475 254.827 145.556C254.327 144.636 253.989 143.518 253.82 142.209C253.651 140.899 253.651 139.487 253.82 137.979C254.041 136.14 254.474 134.184 255.114 132.124C255.753 130.057 256.496 127.997 257.334 125.93C258.172 123.863 259.017 121.87 259.885 119.943C260.752 118.016 261.502 116.272 262.142 114.713C262.781 113.153 263.23 111.837 263.48 110.778C263.73 109.718 263.663 108.99 263.274 108.6C262.884 108.262 263.068 107.879 263.818 107.431C264.568 106.982 265.501 106.732 266.619 106.68C267.736 106.629 268.89 106.879 270.089 107.431C271.287 107.99 272.14 109.108 272.639 110.778C273.139 112.396 273.058 114.367 272.389 116.677C271.721 118.994 270.787 121.407 269.589 123.915C268.39 126.423 267.104 128.909 265.744 131.366C264.377 133.823 263.237 136.008 262.311 137.935C261.392 139.862 260.863 141.392 260.723 142.54C260.583 143.687 261.157 144.202 262.436 144.084C262.994 144.033 263.7 143.584 264.568 142.746C265.435 141.907 266.391 140.833 267.457 139.524C268.515 138.214 269.603 136.751 270.721 135.132C271.838 133.514 272.897 131.896 273.897 130.278C274.904 128.659 275.793 127.129 276.572 125.673C277.352 124.224 277.91 123.025 278.249 122.076C278.418 121.627 278.697 121.355 279.087 121.237C279.476 121.127 279.836 121.127 280.175 121.237C280.513 121.348 280.77 121.576 280.969 121.907C281.16 122.245 281.152 122.606 280.924 122.995C280.476 123.944 279.836 125.239 278.998 126.887V126.894ZM275.359 100.825C275.668 100.156 275.999 99.4865 276.367 98.8171C276.727 98.1477 277.065 97.5078 277.374 96.8899C277.682 96.2794 277.837 95.8013 277.837 95.4703C277.837 94.0727 277.418 92.9325 276.58 92.0351C275.742 91.1451 274.808 90.4757 273.779 90.027C272.75 89.5783 271.816 89.3576 270.978 89.3576C270.14 89.3576 269.721 89.5562 269.721 89.9461C269.721 90.2845 269.552 90.7552 269.221 91.3658C268.883 91.9836 268.508 92.653 268.089 93.3739C267.67 94.1021 267.295 94.7862 266.957 95.4261C266.619 96.0661 266.457 96.5883 266.457 96.9708C266.457 98.3684 266.905 99.5233 267.795 100.443C268.684 101.362 269.647 102.032 270.684 102.451C271.713 102.87 272.676 103.076 273.573 103.076C274.47 103.076 274.911 102.855 274.911 102.407C274.911 102.017 275.065 101.487 275.374 100.818L275.359 100.825Z" fill="white"/>
<path d="M312.521 117.059C312.41 118.957 311.991 120.951 311.263 123.047C310.536 125.136 309.72 127.188 308.793 129.196C307.874 131.204 306.956 133.117 306.037 134.926C305.118 136.743 304.405 138.317 303.905 139.656C303.405 140.995 303.192 142.069 303.28 142.878C303.361 143.687 303.964 144.092 305.081 144.092C305.581 144.092 306.279 143.687 307.169 142.878C308.058 142.069 309.036 141.01 310.095 139.7C311.153 138.391 312.256 136.913 313.395 135.265C314.535 133.617 315.615 131.984 316.615 130.366C317.622 128.748 318.512 127.203 319.291 125.724C320.07 124.246 320.629 123.032 320.967 122.083C321.136 121.635 321.416 121.362 321.805 121.245C322.195 121.134 322.555 121.134 322.893 121.245C323.231 121.355 323.489 121.583 323.687 121.914C323.878 122.253 323.871 122.613 323.643 123.003C323.195 123.952 322.555 125.246 321.717 126.894C320.879 128.542 319.887 130.3 318.747 132.168C317.6 134.036 316.365 135.92 315.027 137.817C313.689 139.715 312.307 141.444 310.889 143.003C309.47 144.563 308.029 145.85 306.581 146.85C305.132 147.858 303.736 148.358 302.398 148.358C301.28 148.417 300.332 148.152 299.553 147.564C298.773 146.975 298.134 146.181 297.627 145.18C297.127 144.173 296.774 143.047 296.583 141.789C296.384 140.532 296.377 139.266 296.539 137.979C296.818 135.691 297.347 133.433 298.127 131.197C298.906 128.968 299.759 126.835 300.677 124.798C301.596 122.76 302.501 120.892 303.397 119.193C304.287 117.493 304.956 116.015 305.404 114.757C305.853 113.499 306 112.536 305.868 111.866C305.728 111.197 305.074 110.888 303.905 110.947C303.287 111.006 302.427 111.491 301.31 112.411C300.192 113.33 298.979 114.5 297.671 115.927C296.362 117.346 295.039 118.913 293.701 120.612C292.363 122.311 291.165 123.944 290.106 125.511C289.048 127.688 287.945 129.851 286.805 131.999C285.659 134.147 284.644 136.17 283.755 138.067C282.865 139.965 282.211 141.635 281.792 143.091C281.373 144.54 281.358 145.659 281.748 146.438C281.968 146.887 281.792 147.343 281.204 147.821C280.616 148.299 279.866 148.542 278.947 148.571C278.028 148.601 277.08 148.307 276.102 147.696C275.124 147.086 274.389 145.938 273.882 144.261C273.433 142.922 273.463 141.164 273.963 138.987C274.463 136.81 275.19 134.485 276.139 131.999C277.087 129.52 278.146 126.975 279.314 124.386C280.483 121.789 281.542 119.406 282.49 117.229C283.439 115.051 284.137 113.183 284.578 111.623C285.026 110.064 285.026 109.056 284.578 108.608C284.188 108.269 284.372 107.887 285.122 107.438C285.872 106.989 286.82 106.739 287.967 106.688C289.106 106.636 290.268 106.886 291.437 107.438C292.606 107.997 293.444 109.115 293.944 110.785C294.164 111.513 294.252 112.308 294.194 113.168C294.135 114.036 293.995 114.941 293.775 115.89C294.833 114.661 295.906 113.492 296.994 112.374C298.082 111.256 299.185 110.285 300.295 109.446C301.413 108.608 302.501 107.938 303.559 107.438C304.618 106.938 305.647 106.688 306.654 106.688C308.83 106.636 310.447 107.578 311.506 109.534C312.565 111.491 312.903 113.999 312.513 117.067L312.521 117.059Z" fill="white"/>
<path d="M355.224 121.326C355.893 121.774 356.063 122.385 355.724 123.165C354.776 125.173 353.644 127.277 352.335 129.483C351.027 131.69 349.549 133.838 347.903 135.927C346.256 138.016 344.514 139.943 342.676 141.701C340.838 143.459 338.927 144.894 336.949 146.012C334.972 147.13 332.95 147.851 330.884 148.189C328.818 148.527 326.782 148.27 324.775 147.439C322.548 146.549 320.945 145.247 319.967 143.547C318.99 141.848 318.424 139.965 318.255 137.898C318.085 135.831 318.255 133.698 318.754 131.499C319.254 129.292 319.872 127.269 320.592 125.43C321.93 122.025 323.423 119.141 325.069 116.765C326.716 114.397 328.458 112.455 330.296 110.947C332.134 109.439 334.031 108.328 335.986 107.6C337.934 106.879 339.919 106.511 341.926 106.511C343.933 106.511 345.506 107.011 346.484 108.019C347.461 109.027 347.947 110.336 347.947 111.954C347.947 113.573 347.498 115.36 346.609 117.309C345.719 119.266 344.447 121.171 342.801 123.04C341.154 124.908 339.162 126.614 336.817 128.144C334.472 129.682 331.855 130.837 328.951 131.616C328.561 133.065 328.282 134.507 328.113 135.927C327.944 137.347 327.914 138.648 328.032 139.818C328.142 140.988 328.407 141.966 328.826 142.746C329.245 143.525 329.87 144.003 330.708 144.165C331.935 144.386 333.259 144.209 334.677 143.621C336.096 143.033 337.552 142.157 339.029 140.988C340.507 139.818 341.955 138.45 343.381 136.883C344.8 135.324 346.138 133.676 347.395 131.947C348.652 130.219 349.762 128.505 350.74 126.798C351.718 125.099 352.482 123.518 353.041 122.069C353.21 121.62 353.504 121.318 353.916 121.149C354.328 120.98 354.769 121.039 355.21 121.318L355.224 121.326ZM330.715 126.6C330.436 127.218 330.215 127.769 330.046 128.277C333.391 127.107 336.14 125.504 338.287 123.466C340.434 121.429 342.036 119.421 343.095 117.442C344.153 115.463 344.697 113.749 344.727 112.293C344.756 110.844 344.264 110.086 343.264 110.035C341.757 109.983 339.86 111.432 337.574 114.389C335.288 117.346 333.001 121.421 330.715 126.607V126.6Z" fill="white"/>
<path d="M363.84 146.607L363.759 146.688C362.532 147.306 361.363 147.777 360.245 148.108C359.128 148.446 358.18 148.608 357.4 148.608C355.173 148.608 353.453 148.034 352.255 146.894C351.056 145.754 350.262 144.401 349.873 142.834C349.483 141.274 349.424 139.708 349.704 138.148C349.983 136.589 350.512 135.39 351.292 134.551C352.409 133.382 353.409 132.602 354.306 132.205C355.195 131.815 355.952 131.675 356.562 131.786C357.173 131.844 357.746 132.095 358.275 132.536C358.805 132.985 359.069 133.544 359.069 134.213C359.069 134.941 358.805 135.552 358.275 136.052C357.746 136.552 357.143 136.802 356.474 136.802C355.974 136.802 355.496 136.648 355.055 136.339C354.607 136.03 354.306 135.625 354.136 135.125C353.416 135.964 352.909 136.964 352.629 138.141C352.35 139.311 352.291 140.429 352.46 141.488C352.629 142.547 353.063 143.452 353.754 144.209C354.453 144.96 355.416 145.372 356.643 145.423C357.092 145.423 357.731 145.217 358.569 144.798C359.407 144.379 360.253 143.68 361.12 142.709C361.988 141.731 362.752 140.48 363.421 138.943C364.09 137.405 364.495 135.552 364.634 133.374C364.774 131.197 364.539 128.659 363.921 125.761C363.304 122.863 362.135 119.597 360.407 115.971C359.848 117.03 359.224 118.192 358.525 119.443C357.827 120.7 357.202 121.885 356.643 123.003C356.364 123.393 356.026 123.621 355.636 123.672C355.247 123.731 354.886 123.687 354.548 123.547C354.21 123.407 353.975 123.187 353.835 122.878C353.695 122.569 353.74 122.223 353.96 121.833C354.408 120.884 354.828 120.031 355.217 119.281C355.607 118.531 355.996 117.817 356.386 117.148C356.776 116.478 357.136 115.794 357.474 115.095C357.812 114.397 358.172 113.661 358.562 112.874C357.944 111.984 357.474 111.006 357.143 109.946C356.805 108.887 356.643 107.769 356.643 106.599C356.643 106.099 356.739 105.467 356.937 104.716C357.136 103.966 357.467 103.208 357.944 102.458C358.415 101.708 359.077 101.061 359.907 100.531C360.745 100.001 361.833 99.7366 363.171 99.7366C364.509 99.7366 365.583 100.046 366.222 100.656C366.862 101.274 367.215 102.054 367.266 103.003C367.317 103.951 367.126 104.996 366.678 106.143C366.229 107.291 365.649 108.416 364.921 109.534L364.671 110.035C366.847 112.543 368.589 114.948 369.898 117.236C371.206 119.524 372.199 121.701 372.868 123.768C373.537 125.835 373.912 127.755 374 129.542C374.081 131.33 373.926 132.999 373.537 134.566C375.375 132.448 377.021 130.351 378.469 128.292C379.918 126.225 381.116 124.275 382.064 122.436C382.233 122.047 382.483 121.782 382.814 121.642C383.152 121.502 383.564 121.576 384.071 121.848C384.461 122.069 384.696 122.378 384.784 122.767C384.865 123.157 384.828 123.518 384.659 123.856C383.321 126.592 381.77 129.16 380.021 131.558C378.264 133.956 376.323 136.353 374.206 138.759C372.699 140.436 371.125 141.937 369.479 143.275C367.832 144.614 365.98 145.732 363.914 146.622H363.833L363.84 146.607Z" fill="white"/>
<path d="M392.378 146.607L392.297 146.688C391.07 147.306 389.901 147.777 388.783 148.108C387.666 148.446 386.718 148.608 385.938 148.608C383.711 148.608 381.991 148.034 380.792 146.894C379.594 145.754 378.8 144.401 378.411 142.834C378.021 141.274 377.962 139.708 378.242 138.148C378.521 136.589 379.05 135.39 379.829 134.551C380.947 133.382 381.947 132.602 382.844 132.205C383.733 131.815 384.49 131.675 385.1 131.786C385.711 131.844 386.284 132.095 386.813 132.536C387.343 132.985 387.607 133.544 387.607 134.213C387.607 134.941 387.343 135.552 386.813 136.052C386.284 136.552 385.681 136.802 385.012 136.802C384.512 136.802 384.034 136.648 383.593 136.339C383.145 136.03 382.844 135.625 382.674 135.125C381.954 135.964 381.447 136.964 381.167 138.141C380.888 139.311 380.829 140.429 380.998 141.488C381.167 142.547 381.601 143.452 382.292 144.209C382.991 144.96 383.954 145.372 385.181 145.423C385.63 145.423 386.269 145.217 387.107 144.798C387.945 144.379 388.791 143.68 389.658 142.709C390.526 141.731 391.29 140.48 391.959 138.943C392.628 137.405 393.032 135.552 393.172 133.374C393.312 131.197 393.077 128.659 392.459 125.761C391.842 122.863 390.673 119.597 388.945 115.971C388.386 117.03 387.762 118.192 387.063 119.443C386.365 120.7 385.74 121.885 385.181 123.003C384.902 123.393 384.564 123.621 384.174 123.672C383.785 123.731 383.424 123.687 383.086 123.547C382.748 123.407 382.513 123.187 382.373 122.878C382.233 122.569 382.277 122.223 382.498 121.833C382.946 120.884 383.365 120.031 383.755 119.281C384.145 118.531 384.534 117.817 384.924 117.148C385.314 116.478 385.674 115.794 386.012 115.095C386.35 114.397 386.71 113.661 387.1 112.874C386.482 111.984 386.012 111.006 385.681 109.946C385.343 108.887 385.181 107.769 385.181 106.599C385.181 106.099 385.277 105.467 385.475 104.716C385.674 103.966 386.005 103.208 386.482 102.458C386.953 101.708 387.615 101.061 388.445 100.531C389.283 100.001 390.371 99.7366 391.709 99.7366C393.047 99.7366 394.12 100.046 394.76 100.656C395.4 101.274 395.752 102.054 395.804 103.003C395.855 103.951 395.664 104.996 395.216 106.143C394.767 107.291 394.187 108.416 393.459 109.534L393.209 110.035C395.385 112.543 397.127 114.948 398.436 117.236C399.744 119.524 400.737 121.701 401.406 123.768C402.075 125.835 402.45 127.755 402.538 129.542C402.619 131.33 402.464 132.999 402.075 134.566C403.912 132.448 405.559 130.351 407.007 128.292C408.456 126.225 409.654 124.275 410.602 122.436C410.771 122.047 411.021 121.782 411.352 121.642C411.69 121.502 412.102 121.576 412.609 121.848C412.999 122.069 413.234 122.378 413.322 122.767C413.403 123.157 413.366 123.518 413.197 123.856C411.859 126.592 410.308 129.16 408.559 131.558C406.802 133.956 404.861 136.353 402.744 138.759C401.237 140.436 399.663 141.937 398.017 143.275C396.37 144.614 394.517 145.732 392.452 146.622H392.371L392.378 146.607Z" fill="white"/>
<path d="M51.68 187.748H54.4441L47.2251 204.74H44.8506L41.4322 196.443L38.0506 204.74H35.6761L28.4571 187.748H31.1918L37.0435 201.908L39.9031 194.846L36.9773 187.785H39.3518L41.4322 193.221L43.5127 187.785H45.8871L42.9907 194.846L45.8504 201.908L51.6726 187.748H51.68Z" fill="white"/>
<path d="M56.6495 184.556V180.973H59.5091V184.556H56.6495ZM56.6495 204.733V187.741H59.5091V204.733H56.6495Z" fill="white"/>
<path d="M72.2711 203.894C72.0946 203.982 71.8668 204.085 71.5874 204.203C71.3081 204.321 70.9846 204.438 70.6244 204.563C70.2642 204.681 69.8745 204.777 69.4555 204.858C69.0291 204.931 68.5954 204.968 68.1396 204.968C67.0957 204.968 66.1989 204.681 65.4417 204.107C64.6845 203.534 64.3022 202.636 64.3022 201.422V189.999H61.9939V187.755H64.3022V182.092H67.1619V187.755H70.9699V189.999H67.1619V200.547C67.206 201.18 67.4118 201.636 67.7794 201.915C68.147 202.195 68.5807 202.342 69.0806 202.342C69.6467 202.342 70.1612 202.254 70.6244 202.062C71.0875 201.879 71.411 201.731 71.5874 201.621L72.2711 203.901V203.894Z" fill="white"/>
<path d="M89.2086 204.74H86.3489V195.236C86.3489 193.478 86.0475 192.169 85.4374 191.316C84.8272 190.455 83.9377 190.028 82.7688 190.028C82.2028 190.028 81.6441 190.139 81.078 190.367C80.512 190.595 79.99 190.904 79.4975 191.294C79.0123 191.683 78.5786 192.154 78.1963 192.691C77.814 193.235 77.5273 193.831 77.3362 194.479V204.733H74.4765V180.973H77.3362V191.389C78.0051 190.153 78.9167 189.19 80.0709 188.491C81.2177 187.8 82.4748 187.447 83.8421 187.447C84.8419 187.447 85.6873 187.63 86.3783 187.998C87.0694 188.366 87.6281 188.866 88.0397 189.499C88.4514 190.131 88.7528 190.882 88.9366 191.764C89.1204 192.64 89.216 193.581 89.216 194.582V204.74H89.2086Z" fill="white"/>
<path d="M110.675 203.894C110.498 203.982 110.27 204.085 109.991 204.203C109.711 204.321 109.388 204.438 109.028 204.563C108.668 204.681 108.278 204.777 107.859 204.858C107.433 204.931 106.999 204.968 106.543 204.968C105.499 204.968 104.602 204.681 103.845 204.107C103.088 203.534 102.706 202.636 102.706 201.422V189.999H100.397V187.755H102.706V182.092H105.565V187.755H109.373V189.999H105.565V200.547C105.609 201.18 105.815 201.636 106.183 201.915C106.55 202.195 106.984 202.342 107.484 202.342C108.05 202.342 108.565 202.254 109.028 202.062C109.491 201.879 109.814 201.731 109.991 201.621L110.675 203.901V203.894Z" fill="white"/>
<path d="M127.612 204.74H124.752V195.236C124.752 193.478 124.451 192.169 123.841 191.316C123.231 190.455 122.341 190.028 121.172 190.028C120.606 190.028 120.048 190.139 119.481 190.367C118.915 190.595 118.393 190.904 117.901 191.294C117.416 191.683 116.982 192.154 116.6 192.691C116.217 193.235 115.931 193.831 115.74 194.479V204.733H112.88V180.973H115.74V191.389C116.409 190.153 117.32 189.19 118.474 188.491C119.621 187.8 120.878 187.447 122.246 187.447C123.245 187.447 124.091 187.63 124.782 187.998C125.473 188.366 126.032 188.866 126.443 189.499C126.855 190.131 127.156 190.882 127.34 191.764C127.524 192.64 127.619 193.581 127.619 194.582V204.74H127.612Z" fill="white"/>
<path d="M139.212 205.064C137.933 205.064 136.764 204.828 135.699 204.365C134.633 203.901 133.721 203.261 132.964 202.46C132.207 201.658 131.611 200.716 131.192 199.642C130.766 198.568 130.56 197.436 130.56 196.244C130.56 195.052 130.773 193.92 131.192 192.86C131.619 191.801 132.214 190.867 132.979 190.058C133.75 189.256 134.662 188.623 135.728 188.153C136.794 187.689 137.963 187.454 139.242 187.454C140.521 187.454 141.69 187.689 142.741 188.167C143.792 188.646 144.689 189.278 145.424 190.073C146.16 190.867 146.733 191.786 147.13 192.838C147.534 193.89 147.733 194.979 147.733 196.112C147.733 196.354 147.733 196.568 147.718 196.766C147.703 196.965 147.689 197.112 147.667 197.222H133.581C133.648 198.068 133.839 198.841 134.169 199.532C134.493 200.223 134.919 200.827 135.441 201.319C135.963 201.82 136.551 202.209 137.213 202.489C137.875 202.769 138.573 202.916 139.308 202.916C139.83 202.916 140.337 202.842 140.837 202.702C141.337 202.563 141.8 202.371 142.234 202.136C142.668 201.901 143.05 201.606 143.388 201.261C143.726 200.915 143.976 200.525 144.153 200.091L146.623 200.775C146.343 201.408 145.954 201.981 145.468 202.504C144.983 203.026 144.417 203.475 143.778 203.857C143.138 204.24 142.425 204.534 141.646 204.755C140.867 204.975 140.051 205.078 139.205 205.078L139.212 205.064ZM145.035 195.104C144.969 194.302 144.77 193.559 144.432 192.875C144.094 192.191 143.675 191.61 143.16 191.132C142.653 190.654 142.057 190.278 141.388 190.006C140.72 189.734 139.999 189.602 139.242 189.602C138.485 189.602 137.764 189.734 137.095 190.006C136.426 190.278 135.831 190.654 135.324 191.146C134.816 191.632 134.405 192.213 134.089 192.89C133.772 193.559 133.581 194.302 133.523 195.104H145.035Z" fill="white"/>
<path d="M165.92 204.931C164.773 204.931 163.715 204.696 162.751 204.218C161.788 203.74 160.958 203.1 160.259 202.298C159.568 201.496 159.032 200.569 158.649 199.532C158.267 198.488 158.083 197.406 158.083 196.273C158.083 195.082 158.275 193.949 158.649 192.875C159.032 191.801 159.568 190.86 160.259 190.058C160.95 189.256 161.781 188.623 162.751 188.153C163.715 187.689 164.788 187.454 165.957 187.454C167.39 187.454 168.625 187.8 169.662 188.498C170.706 189.19 171.58 190.073 172.294 191.132V187.748H174.83V204.541C174.83 205.755 174.602 206.822 174.146 207.748C173.69 208.668 173.073 209.448 172.294 210.073C171.514 210.705 170.595 211.176 169.544 211.507C168.493 211.831 167.368 211.993 166.177 211.993C164.244 211.993 162.678 211.662 161.48 211C160.274 210.338 159.274 209.418 158.473 208.249L160.134 206.785C160.803 207.785 161.671 208.528 162.737 209.028C163.795 209.528 164.95 209.779 166.185 209.779C166.964 209.779 167.706 209.668 168.412 209.455C169.118 209.242 169.728 208.911 170.25 208.477C170.772 208.043 171.191 207.498 171.5 206.851C171.816 206.204 171.97 205.431 171.97 204.541V201.547C171.647 202.07 171.257 202.541 170.816 202.96C170.375 203.386 169.89 203.74 169.368 204.034C168.846 204.328 168.294 204.549 167.706 204.703C167.118 204.858 166.523 204.931 165.92 204.931ZM166.795 202.585C167.405 202.585 167.986 202.474 168.552 202.261C169.118 202.048 169.632 201.753 170.11 201.4C170.588 201.04 170.985 200.635 171.316 200.179C171.639 199.723 171.86 199.26 171.963 198.782V193.898C171.727 193.309 171.411 192.779 171.036 192.301C170.662 191.823 170.228 191.404 169.75 191.051C169.272 190.69 168.758 190.418 168.206 190.22C167.655 190.021 167.096 189.925 166.53 189.925C165.663 189.925 164.891 190.109 164.207 190.477C163.523 190.845 162.943 191.338 162.465 191.941C161.987 192.551 161.619 193.235 161.362 194.008C161.105 194.78 160.972 195.553 160.972 196.332C160.972 197.178 161.127 197.98 161.428 198.738C161.73 199.495 162.141 200.157 162.663 200.724C163.185 201.29 163.795 201.739 164.501 202.077C165.207 202.415 165.971 202.585 166.795 202.585Z" fill="white"/>
<path d="M186.46 205.064C185.18 205.064 184.012 204.828 182.96 204.35C181.909 203.872 181.012 203.232 180.262 202.43C179.513 201.628 178.932 200.694 178.52 199.628C178.108 198.568 177.903 197.45 177.903 196.273C177.903 195.096 178.116 193.949 178.535 192.89C178.961 191.823 179.542 190.896 180.292 190.087C181.042 189.285 181.938 188.646 182.99 188.167C184.041 187.689 185.195 187.454 186.452 187.454C187.709 187.454 188.871 187.689 189.929 188.167C190.988 188.646 191.9 189.285 192.642 190.087C193.392 190.889 193.973 191.823 194.399 192.89C194.825 193.956 195.031 195.082 195.031 196.273C195.031 197.465 194.825 198.561 194.414 199.628C194.002 200.694 193.414 201.621 192.657 202.43C191.9 203.232 190.995 203.872 189.944 204.35C188.893 204.828 187.724 205.064 186.445 205.064H186.46ZM180.828 196.31C180.828 197.2 180.975 198.024 181.27 198.782C181.564 199.539 181.961 200.201 182.475 200.768C182.982 201.334 183.578 201.776 184.262 202.099C184.945 202.423 185.673 202.585 186.46 202.585C187.246 202.585 187.974 202.423 188.658 202.099C189.341 201.776 189.944 201.327 190.466 200.746C190.988 200.172 191.392 199.495 191.686 198.73C191.98 197.958 192.127 197.134 192.127 196.244C192.127 195.354 191.98 194.56 191.686 193.787C191.392 193.015 190.988 192.345 190.466 191.772C189.944 191.198 189.341 190.749 188.658 190.418C187.974 190.095 187.246 189.933 186.46 189.933C185.673 189.933 184.945 190.102 184.262 190.44C183.578 190.779 182.982 191.235 182.475 191.808C181.968 192.382 181.564 193.059 181.27 193.824C180.975 194.596 180.828 195.428 180.828 196.318V196.31Z" fill="white"/>
<path d="M205.632 205.064C204.353 205.064 203.184 204.828 202.133 204.35C201.081 203.872 200.185 203.232 199.435 202.43C198.685 201.628 198.104 200.694 197.692 199.628C197.281 198.568 197.075 197.45 197.075 196.273C197.075 195.096 197.288 193.949 197.707 192.89C198.134 191.823 198.714 190.896 199.464 190.087C200.214 189.285 201.111 188.646 202.162 188.167C203.213 187.689 204.367 187.454 205.625 187.454C206.882 187.454 208.043 187.689 209.102 188.167C210.16 188.646 211.072 189.285 211.814 190.087C212.564 190.889 213.145 191.823 213.571 192.89C213.998 193.956 214.204 195.082 214.204 196.273C214.204 197.465 213.998 198.561 213.586 199.628C213.174 200.694 212.586 201.621 211.829 202.43C211.072 203.232 210.168 203.872 209.116 204.35C208.065 204.828 206.896 205.064 205.617 205.064H205.632ZM200.001 196.31C200.001 197.2 200.148 198.024 200.442 198.782C200.736 199.539 201.133 200.201 201.647 200.768C202.155 201.334 202.75 201.776 203.434 202.099C204.118 202.423 204.845 202.585 205.632 202.585C206.419 202.585 207.146 202.423 207.83 202.099C208.514 201.776 209.116 201.327 209.638 200.746C210.16 200.172 210.565 199.495 210.859 198.73C211.153 197.958 211.3 197.134 211.3 196.244C211.3 195.354 211.153 194.56 210.859 193.787C210.565 193.015 210.16 192.345 209.638 191.772C209.116 191.198 208.514 190.749 207.83 190.418C207.146 190.095 206.419 189.933 205.632 189.933C204.845 189.933 204.118 190.102 203.434 190.44C202.75 190.779 202.155 191.235 201.647 191.808C201.14 192.382 200.736 193.059 200.442 193.824C200.148 194.596 200.001 195.428 200.001 196.318V196.31Z" fill="white"/>
<path d="M224.37 205.064C223.202 205.064 222.114 204.828 221.121 204.35C220.121 203.872 219.269 203.232 218.548 202.43C217.835 201.628 217.276 200.694 216.872 199.628C216.468 198.568 216.269 197.45 216.269 196.273C216.269 195.096 216.46 193.949 216.835 192.875C217.218 191.801 217.747 190.86 218.431 190.058C219.114 189.256 219.93 188.623 220.871 188.153C221.812 187.689 222.849 187.454 223.981 187.454C225.348 187.454 226.569 187.814 227.642 188.528C228.715 189.241 229.568 190.109 230.193 191.132V180.973H233.052V201.216C233.052 201.886 233.354 202.239 233.964 202.261V204.733C233.663 204.777 233.413 204.806 233.229 204.828C233.045 204.85 232.869 204.858 232.692 204.858C232.126 204.858 231.634 204.666 231.215 204.291C230.796 203.916 230.582 203.475 230.582 202.975V201.54C229.906 202.643 229.017 203.511 227.899 204.129C226.782 204.747 225.606 205.056 224.37 205.056V205.064ZM225.054 202.592C225.576 202.592 226.113 202.496 226.664 202.298C227.215 202.099 227.737 201.834 228.223 201.481C228.708 201.136 229.134 200.731 229.494 200.26C229.855 199.789 230.082 199.297 230.193 198.782V193.898C229.994 193.353 229.708 192.838 229.318 192.353C228.928 191.867 228.487 191.441 228.002 191.08C227.517 190.72 226.995 190.44 226.444 190.234C225.892 190.028 225.341 189.925 224.804 189.925C223.959 189.925 223.194 190.102 222.511 190.462C221.827 190.823 221.239 191.301 220.754 191.897C220.268 192.493 219.894 193.177 219.629 193.949C219.372 194.721 219.239 195.508 219.239 196.31C219.239 197.156 219.394 197.965 219.695 198.738C219.996 199.51 220.408 200.172 220.93 200.738C221.452 201.305 222.062 201.753 222.768 202.092C223.474 202.43 224.238 202.599 225.062 202.599L225.054 202.592Z" fill="white"/>
<path d="M252.151 204.74H249.292V195.236C249.292 193.412 249.012 192.088 248.461 191.264C247.91 190.44 247.064 190.028 245.939 190.028C245.351 190.028 244.77 190.139 244.182 190.367C243.594 190.595 243.043 190.904 242.521 191.294C241.999 191.683 241.543 192.154 241.154 192.691C240.764 193.235 240.47 193.831 240.279 194.479V204.733H237.419V187.741H240.022V191.389C240.69 190.198 241.661 189.241 242.933 188.528C244.204 187.814 245.586 187.454 247.079 187.454C248.057 187.454 248.865 187.63 249.519 187.991C250.174 188.351 250.688 188.851 251.078 189.491C251.468 190.131 251.747 190.889 251.909 191.757C252.07 192.625 252.151 193.567 252.151 194.589V204.747V204.74Z" fill="white"/>
<path d="M263.752 205.064C262.473 205.064 261.304 204.828 260.238 204.365C259.172 203.901 258.26 203.261 257.503 202.46C256.746 201.658 256.15 200.716 255.731 199.642C255.305 198.568 255.099 197.436 255.099 196.244C255.099 195.052 255.312 193.92 255.731 192.86C256.158 191.801 256.753 190.867 257.518 190.058C258.29 189.256 259.201 188.623 260.267 188.153C261.333 187.689 262.502 187.454 263.781 187.454C265.06 187.454 266.229 187.689 267.28 188.167C268.332 188.646 269.228 189.278 269.964 190.073C270.699 190.867 271.272 191.786 271.669 192.838C272.073 193.89 272.272 194.979 272.272 196.112C272.272 196.354 272.272 196.568 272.257 196.766C272.242 196.965 272.228 197.112 272.206 197.222H258.121C258.187 198.068 258.378 198.841 258.709 199.532C259.032 200.223 259.458 200.827 259.98 201.319C260.502 201.82 261.09 202.209 261.752 202.489C262.414 202.769 263.112 202.916 263.847 202.916C264.369 202.916 264.876 202.842 265.376 202.702C265.876 202.563 266.339 202.371 266.773 202.136C267.207 201.901 267.589 201.606 267.927 201.261C268.265 200.915 268.515 200.525 268.692 200.091L271.162 200.775C270.882 201.408 270.493 201.981 270.008 202.504C269.522 203.026 268.956 203.475 268.317 203.857C267.677 204.24 266.964 204.534 266.185 204.755C265.406 204.975 264.59 205.078 263.744 205.078L263.752 205.064ZM269.574 195.104C269.508 194.302 269.309 193.559 268.971 192.875C268.633 192.191 268.214 191.61 267.699 191.132C267.192 190.654 266.597 190.278 265.928 190.006C265.259 189.734 264.538 189.602 263.781 189.602C263.024 189.602 262.303 189.734 261.634 190.006C260.965 190.278 260.37 190.654 259.863 191.146C259.356 191.632 258.944 192.213 258.628 192.89C258.312 193.559 258.121 194.302 258.062 195.104H269.574Z" fill="white"/>
<path d="M280.895 205.064C279.528 205.064 278.182 204.85 276.859 204.431C275.536 204.004 274.396 203.394 273.441 202.592L274.676 200.672C275.676 201.43 276.668 202.004 277.668 202.379C278.667 202.761 279.719 202.945 280.821 202.945C282.056 202.945 283.042 202.702 283.762 202.21C284.49 201.724 284.85 201.033 284.85 200.143C284.85 199.731 284.754 199.378 284.556 199.083C284.357 198.789 284.071 198.539 283.681 198.318C283.292 198.105 282.792 197.906 282.181 197.73C281.571 197.553 280.866 197.369 280.064 197.178C279.042 196.921 278.168 196.671 277.432 196.428C276.697 196.193 276.087 195.906 275.609 195.582C275.131 195.258 274.786 194.868 274.565 194.412C274.345 193.956 274.242 193.39 274.242 192.721C274.242 191.875 274.411 191.117 274.749 190.455C275.087 189.793 275.543 189.241 276.131 188.793C276.719 188.351 277.403 188.013 278.197 187.785C278.991 187.557 279.836 187.447 280.748 187.447C282.027 187.447 283.218 187.652 284.328 188.064C285.431 188.476 286.364 189.021 287.129 189.69L285.828 191.419C285.115 190.786 284.313 190.315 283.424 190.006C282.534 189.69 281.623 189.536 280.689 189.536C279.645 189.536 278.763 189.756 278.035 190.205C277.307 190.646 276.947 191.36 276.947 192.338C276.947 192.728 277.021 193.052 277.16 193.316C277.3 193.574 277.535 193.802 277.859 194C278.182 194.199 278.601 194.368 279.109 194.523C279.616 194.677 280.233 194.839 280.946 195.008C282.071 195.266 283.056 195.538 283.887 195.803C284.725 196.075 285.416 196.391 285.967 196.766C286.519 197.134 286.93 197.568 287.202 198.068C287.474 198.568 287.607 199.172 287.607 199.892C287.607 201.474 286.997 202.739 285.784 203.666C284.571 204.6 282.931 205.064 280.873 205.064H280.895Z" fill="white"/>
<path d="M296.664 205.064C295.296 205.064 293.951 204.85 292.628 204.431C291.304 204.004 290.165 203.394 289.209 202.592L290.444 200.672C291.444 201.43 292.437 202.004 293.436 202.379C294.436 202.761 295.487 202.945 296.59 202.945C297.825 202.945 298.81 202.702 299.531 202.21C300.258 201.724 300.619 201.033 300.619 200.143C300.619 199.731 300.523 199.378 300.325 199.083C300.126 198.789 299.839 198.539 299.45 198.318C299.06 198.105 298.56 197.906 297.95 197.73C297.34 197.553 296.634 197.369 295.833 197.178C294.811 196.921 293.936 196.671 293.201 196.428C292.466 196.193 291.856 195.906 291.378 195.582C290.9 195.258 290.555 194.868 290.334 194.412C290.114 193.956 290.011 193.39 290.011 192.721C290.011 191.875 290.18 191.117 290.518 190.455C290.856 189.793 291.312 189.241 291.9 188.793C292.488 188.351 293.172 188.013 293.966 187.785C294.76 187.557 295.605 187.447 296.517 187.447C297.796 187.447 298.987 187.652 300.097 188.064C301.199 188.476 302.133 189.021 302.898 189.69L301.596 191.419C300.883 190.786 300.082 190.315 299.192 190.006C298.303 189.69 297.391 189.536 296.458 189.536C295.414 189.536 294.532 189.756 293.804 190.205C293.076 190.646 292.716 191.36 292.716 192.338C292.716 192.728 292.789 193.052 292.929 193.316C293.069 193.574 293.304 193.802 293.628 194C293.951 194.199 294.37 194.368 294.877 194.523C295.384 194.677 296.002 194.839 296.715 195.008C297.84 195.266 298.825 195.538 299.656 195.803C300.494 196.075 301.185 196.391 301.736 196.766C302.287 197.134 302.699 197.568 302.971 198.068C303.243 198.568 303.375 199.172 303.375 199.892C303.375 201.474 302.765 202.739 301.552 203.666C300.339 204.6 298.7 205.064 296.642 205.064H296.664Z" fill="white"/>
<path d="M322.43 205.064C321.151 205.064 319.982 204.828 318.931 204.35C317.88 203.872 316.983 203.232 316.233 202.43C315.483 201.628 314.902 200.694 314.491 199.628C314.079 198.568 313.873 197.45 313.873 196.273C313.873 195.096 314.086 193.949 314.505 192.89C314.932 191.823 315.512 190.896 316.262 190.087C317.012 189.285 317.909 188.646 318.96 188.167C320.012 187.689 321.166 187.454 322.423 187.454C323.68 187.454 324.841 187.689 325.9 188.167C326.959 188.646 327.87 189.285 328.613 190.087C329.362 190.889 329.943 191.823 330.37 192.89C330.796 193.956 331.002 195.082 331.002 196.273C331.002 197.465 330.796 198.561 330.384 199.628C329.973 200.694 329.384 201.621 328.627 202.43C327.87 203.232 326.966 203.872 325.915 204.35C324.863 204.828 323.695 205.064 322.415 205.064H322.43ZM316.799 196.31C316.799 197.2 316.946 198.024 317.24 198.782C317.534 199.539 317.931 200.201 318.446 200.768C318.953 201.334 319.548 201.776 320.232 202.099C320.916 202.423 321.644 202.585 322.43 202.585C323.217 202.585 323.944 202.423 324.628 202.099C325.312 201.776 325.915 201.327 326.437 200.746C326.959 200.172 327.363 199.495 327.657 198.73C327.951 197.958 328.098 197.134 328.098 196.244C328.098 195.354 327.951 194.56 327.657 193.787C327.363 193.015 326.959 192.345 326.437 191.772C325.915 191.198 325.312 190.749 324.628 190.418C323.944 190.095 323.217 189.933 322.43 189.933C321.644 189.933 320.916 190.102 320.232 190.44C319.548 190.779 318.953 191.235 318.446 191.808C317.938 192.382 317.534 193.059 317.24 193.824C316.946 194.596 316.799 195.428 316.799 196.318V196.31Z" fill="white"/>
<path d="M334.575 204.74V189.999H332.266V187.755H334.575V187.395C334.575 185.291 335.038 183.644 335.971 182.445C336.905 181.253 338.169 180.657 339.779 180.657C340.448 180.657 341.11 180.753 341.764 180.937C342.411 181.121 342.999 181.378 343.521 181.702L342.808 183.82C342.507 183.607 342.132 183.43 341.683 183.298C341.242 183.165 340.801 183.099 340.367 183.099C339.412 183.099 338.684 183.46 338.191 184.173C337.692 184.887 337.442 185.931 337.442 187.299V187.755H341.963V189.999H337.442V204.74H334.582H334.575Z" fill="white"/>
<path d="M373.478 204.74V186.873L365.803 200.577H364.142L356.43 186.873V204.74H353.504V181.628H356.592L364.95 196.634L373.346 181.628H376.404V204.74H373.478Z" fill="white"/>
<path d="M381.013 184.556V180.973H383.873V184.556H381.013ZM381.013 204.733V187.741H383.873V204.733H381.013Z" fill="white"/>
<path d="M388.004 180.981H390.864V200.349C390.864 200.981 391.033 201.474 391.371 201.827C391.709 202.187 392.18 202.364 392.782 202.364C393.018 202.364 393.304 202.327 393.628 202.246C393.951 202.173 394.253 202.077 394.539 201.967L394.995 204.276C394.517 204.475 393.951 204.637 393.304 204.762C392.65 204.894 392.077 204.961 391.577 204.961C390.474 204.961 389.599 204.644 388.96 204.019C388.32 203.394 387.997 202.511 387.997 201.386V180.981H388.004Z" fill="white"/>
<path d="M422.6 204.74H419.74V195.236C419.74 193.456 419.453 192.147 418.88 191.301C418.306 190.455 417.454 190.028 416.329 190.028C415.204 190.028 414.109 190.448 413.19 191.279C412.271 192.117 411.609 193.191 411.22 194.515V204.733H408.36V195.229C408.36 193.405 408.081 192.081 407.515 191.257C406.949 190.433 406.103 190.021 404.978 190.021C403.854 190.021 402.788 190.426 401.854 191.242C400.92 192.059 400.259 193.133 399.869 194.479V204.733H397.01V187.741H399.612V191.389C400.303 190.131 401.207 189.16 402.31 188.476C403.413 187.792 404.662 187.454 406.052 187.454C407.441 187.454 408.617 187.836 409.448 188.609C410.286 189.381 410.801 190.374 410.992 191.588C412.506 188.829 414.667 187.454 417.468 187.454C418.446 187.454 419.262 187.63 419.924 187.991C420.585 188.351 421.115 188.851 421.504 189.491C421.894 190.131 422.173 190.889 422.35 191.757C422.526 192.625 422.607 193.567 422.607 194.589V204.747L422.6 204.74Z" fill="white"/>
<path d="M431.009 205.064C430.208 205.064 429.458 204.931 428.767 204.659C428.076 204.387 427.473 204.012 426.959 203.534C426.452 203.055 426.047 202.496 425.753 201.856C425.459 201.216 425.312 200.518 425.312 199.76C425.312 199.002 425.489 198.267 425.834 197.627C426.18 196.987 426.672 196.435 427.312 195.987C427.951 195.53 428.709 195.17 429.591 194.913C430.465 194.655 431.429 194.523 432.472 194.523C433.296 194.523 434.134 194.596 434.979 194.751C435.825 194.905 436.574 195.111 437.221 195.369V194C437.221 192.61 436.832 191.522 436.053 190.727C435.273 189.933 434.163 189.543 432.737 189.543C431.024 189.543 429.223 190.205 427.334 191.529L426.393 189.675C428.584 188.197 430.782 187.461 432.994 187.461C435.207 187.461 436.971 188.057 438.214 189.249C439.464 190.44 440.081 192.125 440.081 194.295V201.231C440.081 201.901 440.382 202.254 440.993 202.276V204.747C440.691 204.791 440.441 204.821 440.243 204.843C440.044 204.865 439.838 204.872 439.625 204.872C439.059 204.872 438.611 204.703 438.273 204.365C437.934 204.026 437.736 203.622 437.67 203.144L437.604 201.937C436.846 202.96 435.883 203.732 434.722 204.262C433.56 204.791 432.318 205.056 430.995 205.056L431.009 205.064ZM431.759 202.916C432.781 202.916 433.73 202.724 434.604 202.349C435.479 201.967 436.148 201.467 436.604 200.834C437.016 200.422 437.221 199.995 437.221 199.561V197.053C435.832 196.509 434.391 196.237 432.891 196.237C431.392 196.237 430.296 196.538 429.392 197.149C428.495 197.759 428.04 198.546 428.04 199.525C428.04 200.003 428.128 200.444 428.319 200.856C428.503 201.268 428.76 201.628 429.098 201.93C429.436 202.232 429.833 202.474 430.289 202.643C430.745 202.82 431.23 202.901 431.752 202.901L431.759 202.916Z" fill="white"/>
</g>
<defs>
<clipPath id="clip0_2068_99">
<rect width="441" height="212" fill="white"/>
</clipPath>
</defs>
</svg>
